<?xml version="1.0" standalone="no"?>
<!DOCTYPE svg PUBLIC "-//W3C//DTD SVG 20010904//EN"
 "http://www.w3.org/TR/2001/REC-SVG-20010904/DTD/svg10.dtd">
<svg version="1.0" xmlns="http://www.w3.org/2000/svg"
 width="492" height="439" viewBox="0 0 4920 4390"
 preserveAspectRatio="xMidYMid meet">
<metadata>
Created by potrace 1.16, written by Peter Selinger 2001-2019
</metadata>
<g transform="translate(0.000000,1756.000000) scale(0.100000,-0.100000)"
fill="#B8965A" stroke="none">
<path d="M0 8780 l0 -8780 9840 0 9840 0 0 8780 0 8780 -9840 0 -9840 0 0
-8780z m5658 7956 c30 -31 33 -39 30 -88 l-3 -53 -37 -3 c-36 -3 -38 -5 -38
-37 0 -25 -5 -35 -20 -40 -14 -4 -20 -15 -20 -35 0 -19 -7 -33 -20 -40 -26
-14 -25 -27 1 -35 14 -5 19 -14 17 -28 -2 -17 -11 -23 -40 -25 -36 -3 -38 -5
-38 -37 0 -25 -5 -35 -20 -40 -15 -5 -20 -15 -20 -41 0 -19 -4 -34 -10 -34
-23 0 -70 -60 -70 -90 0 -16 -4 -30 -10 -30 -5 0 -24 -14 -42 -32 -28 -27 -32
-38 -32 -82 l-1 -51 -37 1 c-43 1 -48 -10 -16 -35 29 -24 18 -51 -21 -51 -42
0 -121 -78 -121 -120 0 -16 -4 -30 -10 -30 -5 0 -41 -31 -80 -70 -56 -56 -70
-76 -70 -100 0 -16 -5 -30 -10 -30 -6 0 -93 -83 -195 -185 -121 -122 -191
-185 -204 -185 -13 0 -45 -24 -79 -60 -37 -38 -67 -60 -81 -60 -12 0 -37 -17
-58 -40 -26 -28 -45 -40 -64 -40 -25 0 -28 -4 -31 -37 -3 -35 -6 -38 -38 -41
-20 -2 -40 -12 -48 -23 -7 -11 -25 -19 -40 -19 -16 0 -32 -8 -40 -20 -7 -11
-23 -20 -37 -20 -17 0 -38 -14 -62 -40 -23 -24 -46 -40 -60 -40 -15 0 -43 -21
-81 -60 -36 -36 -67 -60 -80 -60 -13 0 -53 -32 -107 -85 -70 -70 -85 -90 -85
-116 0 -22 -5 -32 -19 -36 -40 -10 -36 -63 5 -63 16 0 43 19 82 60 37 38 67
60 81 60 12 0 37 17 58 40 25 27 46 40 63 40 14 0 30 8 38 20 7 12 23 20 40
20 16 0 32 8 40 20 8 13 23 20 42 20 28 0 30 3 30 35 0 46 25 58 53 24 l19
-24 15 23 c10 13 26 22 42 22 15 0 31 8 39 20 9 15 23 20 60 20 36 0 50 5 60
20 10 17 23 20 80 20 56 0 69 3 80 20 9 15 23 20 60 20 36 0 50 5 60 20 9 15
23 20 60 20 36 0 50 5 60 20 11 18 23 20 140 20 86 0 132 -4 140 -12 24 -24
13 -61 -28 -99 -30 -28 -40 -45 -40 -68 0 -17 -4 -31 -10 -31 -5 0 -59 -49
-120 -110 -91 -91 -110 -115 -110 -140 0 -16 -5 -30 -10 -30 -6 0 -51 -41
-100 -91 -72 -72 -90 -96 -90 -120 0 -16 -5 -29 -10 -29 -6 0 -30 -20 -53 -45
-30 -32 -51 -45 -70 -45 -24 0 -27 -4 -27 -35 0 -19 -5 -35 -10 -35 -6 0 -57
-47 -114 -105 -67 -68 -111 -105 -125 -105 -13 0 -44 -24 -79 -60 -37 -38 -67
-60 -81 -60 -12 0 -37 -17 -58 -40 -25 -27 -46 -40 -63 -40 -14 0 -30 -8 -38
-20 -7 -12 -23 -20 -40 -20 -16 0 -32 -8 -40 -20 -7 -12 -23 -20 -40 -20 -16
0 -32 -8 -40 -20 -7 -12 -23 -20 -40 -20 -16 0 -32 -8 -40 -20 -9 -15 -23 -20
-60 -20 -36 0 -50 -5 -60 -20 -9 -15 -23 -20 -60 -20 -36 0 -50 -5 -60 -20
-11 -18 -23 -20 -100 -20 -76 0 -89 -2 -100 -20 -7 -12 -23 -20 -40 -20 -16 0
-32 -8 -40 -20 -8 -13 -23 -20 -42 -20 -28 0 -30 -3 -30 -35 0 -19 -4 -35 -10
-35 -22 0 -70 -60 -70 -89 0 -21 -6 -32 -20 -36 -15 -5 -20 -15 -20 -40 0 -25
-5 -35 -20 -40 -15 -5 -20 -15 -20 -40 0 -25 -5 -35 -20 -40 -15 -5 -20 -15
-20 -41 0 -19 -4 -34 -9 -34 -24 0 -40 -31 -34 -66 5 -30 2 -40 -20 -59 -21
-20 -24 -30 -20 -64 5 -33 2 -42 -16 -53 -14 -9 -21 -23 -21 -45 0 -23 -6 -33
-20 -38 -23 -7 -23 -9 -20 -85 1 -48 -2 -58 -25 -78 -21 -18 -26 -30 -23 -60
4 -46 31 -52 36 -7 2 18 17 43 38 62 24 23 34 42 34 63 0 16 4 30 10 30 23 0
70 60 70 90 0 16 4 30 9 30 10 0 191 173 191 182 0 3 -9 8 -21 11 -29 8 -22
51 9 55 12 2 22 0 22 -5 0 -4 5 -15 10 -23 7 -12 29 7 108 88 75 77 105 102
124 102 14 0 28 6 31 14 3 8 21 17 39 21 18 4 39 16 46 26 8 11 25 19 43 19
27 0 29 3 29 35 0 46 25 58 53 24 l19 -24 15 23 c10 13 26 22 42 22 15 0 31 8
39 20 7 12 23 20 40 20 16 0 32 8 40 20 9 15 23 20 57 20 40 0 50 5 82 40 33
35 42 40 83 40 34 0 48 5 58 20 9 15 23 20 60 20 26 0 53 -5 60 -12 20 -20 14
-65 -10 -82 -16 -11 -22 -25 -20 -45 2 -22 -3 -31 -18 -36 -15 -5 -20 -15 -20
-40 0 -25 -5 -35 -20 -40 -15 -5 -20 -15 -20 -40 0 -25 -5 -35 -20 -40 -15 -5
-20 -15 -20 -41 0 -19 -4 -34 -9 -34 -24 0 -40 -31 -34 -66 5 -32 2 -39 -36
-74 -30 -29 -41 -46 -41 -69 0 -21 -6 -32 -20 -36 -15 -5 -20 -15 -20 -41 0
-19 -5 -34 -10 -34 -6 0 -26 -16 -45 -35 -29 -30 -33 -40 -28 -70 5 -33 1 -39
-56 -95 -48 -46 -61 -65 -61 -89 0 -21 -6 -32 -20 -36 -15 -5 -20 -15 -20 -41
0 -19 -4 -34 -10 -34 -5 0 -32 -22 -60 -50 -38 -38 -50 -57 -50 -80 0 -16 -5
-30 -11 -30 -5 0 -38 -29 -73 -65 -39 -41 -71 -65 -84 -65 -14 0 -44 -23 -80
-60 -37 -38 -67 -60 -81 -60 -12 0 -37 -17 -58 -40 -25 -27 -46 -40 -63 -40
-14 0 -30 -8 -38 -20 -7 -12 -23 -20 -40 -20 -16 0 -32 -8 -40 -20 -7 -12 -23
-20 -40 -20 -16 0 -32 -8 -40 -20 -7 -11 -23 -20 -37 -20 -17 0 -38 -14 -62
-40 -24 -26 -46 -40 -61 -40 -17 0 -42 -19 -81 -60 -42 -45 -64 -60 -84 -60
-24 0 -27 -4 -27 -34 0 -26 -5 -36 -20 -41 -23 -7 -22 -3 -20 -107 1 -68 -1
-78 -21 -91 -20 -14 -21 -23 -20 -119 2 -97 0 -105 -21 -124 -23 -19 -23 -21
-20 -242 l3 -222 29 0 30 0 0 68 c0 60 3 71 24 89 20 18 23 28 19 61 -5 34 -2
43 16 54 14 9 21 23 21 45 0 18 4 33 9 33 24 0 40 31 34 66 -5 32 -2 39 36 74
31 29 41 46 41 69 0 17 4 31 10 31 23 0 70 60 70 90 0 16 4 30 10 30 5 0 32
22 59 49 36 36 50 58 53 83 3 29 7 33 36 36 27 3 52 22 132 103 61 61 106 99
118 99 33 0 110 83 114 122 3 32 4 33 56 36 48 3 58 7 90 43 24 26 45 39 62
39 14 0 30 8 38 20 14 22 61 27 80 8 7 -7 12 -40 12 -79 0 -58 -3 -70 -21 -83
-20 -13 -22 -23 -20 -99 2 -77 0 -87 -20 -100 -20 -14 -22 -24 -20 -100 2 -77
0 -87 -20 -100 -20 -14 -22 -24 -20 -99 2 -77 0 -85 -23 -105 -20 -18 -23 -28
-19 -61 4 -33 2 -42 -17 -55 -20 -14 -23 -24 -21 -79 2 -56 -1 -66 -23 -85
-20 -18 -23 -28 -19 -61 5 -34 2 -43 -16 -54 -14 -9 -21 -23 -21 -45 0 -23 -6
-33 -20 -38 -15 -5 -20 -15 -20 -41 0 -19 -4 -34 -9 -34 -24 0 -40 -31 -34
-65 5 -33 1 -39 -56 -95 -49 -47 -61 -65 -61 -89 0 -17 -5 -31 -10 -31 -6 0
-57 -47 -114 -105 -67 -68 -111 -105 -125 -105 -13 0 -44 -24 -79 -60 -34 -34
-67 -60 -79 -60 -19 0 -113 -75 -113 -91 0 -4 9 -9 21 -12 29 -8 22 -51 -9
-55 -12 -2 -22 0 -22 5 0 4 -5 15 -10 23 -7 12 -22 1 -76 -55 l-66 -69 0 -59
c0 -49 3 -61 21 -74 21 -14 22 -21 20 -180 -1 -158 0 -166 21 -180 20 -14 21
-23 19 -140 -1 -117 0 -126 20 -140 20 -13 22 -23 20 -97 -2 -76 0 -84 24
-108 14 -14 33 -28 42 -32 13 -5 16 -14 12 -36 -8 -39 9 -47 39 -19 29 27 30
35 4 42 -12 3 -20 14 -20 27 0 13 8 24 20 27 11 3 20 10 21 17 0 6 0 81 -1
168 -1 150 0 157 21 171 20 14 22 24 20 99 -2 78 0 85 23 105 21 18 24 28 19
58 -5 31 -2 41 20 60 21 20 24 30 20 64 -5 33 -2 42 16 53 14 9 21 23 21 45 0
18 5 33 10 33 6 0 26 16 45 35 29 31 33 40 28 71 -5 33 -2 39 56 93 33 31 61
60 61 63 0 3 -9 8 -21 11 -15 4 -20 12 -17 29 2 18 10 24 36 26 42 4 82 44 82
82 0 17 4 30 10 30 23 0 70 60 70 90 0 16 5 30 11 30 5 0 48 39 95 86 l84 87
35 -34 35 -34 -1 -244 c0 -235 0 -244 20 -258 20 -14 21 -22 21 -323 0 -303 0
-309 -21 -324 -20 -13 -21 -23 -20 -118 2 -99 1 -105 -23 -125 -21 -18 -24
-28 -19 -58 5 -31 2 -41 -20 -61 -22 -20 -25 -30 -20 -60 5 -30 2 -40 -20 -60
-21 -20 -25 -30 -20 -59 5 -33 2 -40 -36 -75 -30 -29 -41 -46 -41 -69 0 -21
-6 -32 -20 -36 -15 -5 -20 -15 -20 -41 0 -19 -4 -34 -10 -34 -23 0 -70 -60
-70 -90 0 -16 -4 -30 -10 -30 -23 0 -70 -60 -70 -90 0 -16 -4 -30 -10 -30 -5
0 -42 -32 -81 -71 -57 -55 -70 -72 -58 -80 8 -5 17 -9 22 -9 15 0 6 -41 -10
-47 -33 -12 -66 -56 -65 -87 0 -52 1 -54 22 -61 15 -5 20 -15 20 -40 0 -25 5
-35 20 -40 14 -5 20 -15 20 -38 0 -22 7 -36 21 -45 18 -11 21 -20 16 -53 -4
-34 -1 -44 20 -64 22 -19 25 -29 20 -59 -6 -35 10 -66 34 -66 5 0 9 -15 9 -34
0 -26 5 -36 20 -41 14 -5 20 -15 20 -38 0 -22 7 -36 21 -45 17 -11 20 -21 17
-59 -3 -49 15 -71 27 -33 9 29 49 23 53 -8 3 -17 -2 -25 -17 -29 -37 -9 -37
-56 0 -66 14 -4 19 -14 19 -36 0 -22 9 -41 30 -61 17 -17 35 -30 40 -30 6 0
10 -13 10 -29 0 -21 12 -41 41 -71 38 -38 41 -45 36 -81 -7 -50 8 -59 42 -25
24 25 25 28 9 40 -10 7 -18 23 -18 35 0 11 -11 31 -25 43 -24 21 -26 28 -24
106 2 76 0 85 -20 99 -21 14 -22 22 -21 132 2 147 3 138 -20 144 -27 7 -27 47
0 54 11 3 20 10 20 17 1 6 1 117 0 248 -1 232 -1 236 21 252 20 13 22 23 20
98 -2 78 0 85 23 105 21 18 24 28 19 58 -5 31 -2 41 20 61 22 20 25 30 20 60
-5 30 -2 40 20 60 22 20 25 30 20 60 -5 30 -2 40 20 60 22 20 25 30 20 60 -5
30 -2 40 20 60 22 20 25 30 20 60 -5 30 -2 40 20 60 22 20 25 30 20 60 -5 30
-2 40 21 60 14 14 26 29 26 35 0 6 10 9 23 7 17 -2 23 -11 25 -38 2 -20 12
-40 24 -48 16 -12 19 -22 15 -54 -4 -33 -1 -43 20 -63 22 -19 25 -29 20 -59
-5 -30 -2 -40 20 -60 22 -20 25 -30 20 -60 -5 -30 -2 -40 20 -60 22 -20 25
-30 20 -60 -5 -30 -2 -40 20 -60 22 -20 25 -30 20 -61 -5 -30 -2 -40 19 -58
22 -19 25 -29 24 -77 -2 -78 -2 -78 20 -85 14 -5 20 -15 20 -38 0 -22 7 -36
20 -45 19 -12 21 -22 19 -118 -1 -98 0 -106 20 -121 21 -14 22 -22 21 -152 -1
-75 -1 -141 -1 -147 1 -7 10 -14 21 -17 12 -3 20 -14 20 -27 0 -13 -8 -24 -20
-27 -11 -3 -20 -10 -21 -17 0 -6 0 -99 1 -208 1 -192 1 -196 -21 -212 -19 -13
-22 -23 -20 -80 2 -56 -1 -67 -18 -78 -14 -9 -21 -23 -21 -45 0 -23 -6 -33
-20 -38 -22 -7 -22 -7 -20 -87 1 -48 -2 -59 -19 -70 -14 -9 -21 -23 -21 -45 0
-23 -6 -33 -20 -38 -15 -5 -20 -15 -20 -40 0 -25 -5 -35 -20 -40 -15 -5 -20
-15 -20 -40 0 -25 -5 -35 -20 -40 -21 -7 -22 -8 -22 -55 0 -47 1 -48 22 -55
15 -5 20 -15 20 -40 0 -25 5 -35 20 -40 14 -4 20 -15 20 -35 0 -38 40 -78 82
-82 26 -2 34 -8 36 -26 3 -17 -2 -25 -17 -29 -12 -3 -21 -8 -21 -11 0 -15 54
-51 82 -54 30 -3 33 -6 36 -40 2 -26 9 -39 23 -43 13 -4 19 -15 19 -36 0 -22
13 -42 50 -79 28 -28 55 -50 60 -50 6 0 10 -16 10 -35 0 -32 2 -35 29 -35 17
0 35 -8 43 -18 7 -10 21 -21 31 -25 11 -4 17 -17 17 -41 0 -33 2 -34 43 -38
52 -6 71 8 40 29 -15 10 -23 26 -23 44 0 19 -6 30 -20 34 -14 5 -20 15 -20 38
0 22 -7 36 -21 45 -17 11 -20 22 -18 78 2 57 -1 67 -20 80 -19 14 -22 24 -20
80 2 56 -1 67 -19 80 -22 15 -22 17 -22 384 0 363 0 369 21 384 20 13 21 23
20 159 -2 140 -1 146 21 161 18 13 22 25 23 68 0 47 2 53 23 56 12 2 22 -1 22
-6 0 -13 69 -82 81 -82 5 0 9 -14 9 -30 0 -30 47 -90 70 -90 6 0 10 -15 10
-34 0 -26 5 -36 20 -41 14 -4 20 -15 20 -36 0 -29 48 -89 70 -89 6 0 10 -14
10 -30 0 -30 47 -90 70 -90 6 0 10 -15 10 -34 0 -26 5 -36 20 -41 15 -5 20
-15 20 -40 0 -25 5 -35 20 -40 15 -5 20 -15 20 -40 0 -25 5 -35 20 -40 15 -5
20 -15 20 -40 0 -25 5 -35 20 -40 14 -5 20 -15 20 -38 0 -22 7 -36 21 -45 18
-11 21 -20 16 -53 -4 -34 -1 -44 20 -64 22 -19 25 -29 20 -60 -5 -30 -2 -40
19 -58 22 -19 25 -28 23 -85 -2 -55 1 -65 20 -78 20 -15 22 -23 20 -121 -1
-96 0 -106 20 -119 20 -15 21 -22 21 -244 0 -219 -1 -229 -21 -243 -19 -14
-20 -25 -20 -168 0 -85 1 -159 1 -166 0 -6 9 -15 20 -18 14 -4 20 -15 20 -35
0 -36 41 -80 75 -80 13 0 30 -9 37 -19 8 -11 28 -21 48 -23 34 -3 35 -4 37
-48 1 -25 2 -51 2 -57 1 -7 14 -13 29 -13 20 0 39 -12 65 -40 22 -25 45 -40
60 -40 14 0 37 -15 58 -38 20 -22 48 -42 64 -46 16 -4 53 -32 82 -62 34 -34
61 -54 76 -54 14 0 37 -16 59 -39 26 -28 46 -41 70 -43 30 -3 33 -6 36 -38 4
-38 -16 -60 -56 -60 -15 0 -22 -5 -19 -12 2 -8 21 -13 46 -12 31 1 46 6 57 22
13 19 25 22 80 22 62 0 65 1 103 41 39 42 71 48 71 14 0 -23 52 -19 68 5 10
17 23 20 80 20 56 0 69 3 80 20 10 17 23 20 80 20 56 0 69 3 80 20 10 17 23
20 77 20 64 0 67 1 102 40 25 27 46 40 63 40 14 0 30 8 38 20 7 12 23 20 40
20 16 0 32 8 40 20 9 15 23 20 60 20 36 0 50 5 60 20 9 16 23 20 62 20 33 0
50 4 51 13 0 6 0 37 -1 68 -1 48 2 59 21 73 19 13 22 23 20 78 -2 57 1 66 23
85 21 18 24 28 19 58 -5 31 -2 41 20 61 21 19 25 30 20 58 -5 32 -1 40 49 91
37 36 64 55 79 55 13 0 30 9 37 20 9 15 23 20 60 20 36 0 50 5 60 20 7 12 23
20 40 20 16 0 32 8 40 20 10 17 23 20 80 20 56 0 69 3 80 20 9 15 23 20 60 20
36 0 50 5 60 20 9 15 23 20 60 20 36 0 50 5 60 20 9 15 23 20 60 20 36 0 50 5
60 20 9 15 23 20 60 20 36 0 50 5 60 20 9 15 23 20 60 20 36 0 50 5 60 20 9
16 23 20 61 20 l50 0 3 38 c2 30 7 38 26 40 17 3 25 -2 29 -17 7 -28 54 -28
71 -1 17 28 65 27 85 -2 l15 -23 19 24 c13 16 26 22 37 18 14 -6 17 -19 15
-75 -2 -59 1 -71 22 -93 13 -14 32 -28 42 -32 16 -6 25 -47 10 -47 -5 0 -15
-4 -23 -10 -12 -7 -9 -13 13 -34 16 -14 39 -26 52 -26 14 0 29 -8 35 -19 13
-25 13 -71 0 -71 -6 0 -30 -20 -53 -45 -28 -30 -51 -45 -68 -45 -13 0 -30 -9
-37 -20 -7 -12 -23 -20 -38 -20 -15 0 -32 -8 -39 -17 -9 -12 -32 -18 -81 -21
-53 -4 -72 -9 -82 -23 -7 -11 -25 -19 -40 -19 -16 0 -32 -8 -40 -20 -9 -15
-23 -20 -60 -20 -43 -1 -50 -4 -77 -40 -35 -45 -48 -49 -69 -18 -22 31 -36 12
-29 -39 5 -38 9 -43 32 -43 15 0 31 8 39 20 7 12 23 20 40 20 16 0 32 8 40 20
10 17 23 20 80 20 56 0 69 3 80 20 9 16 23 20 62 20 l50 0 0 34 c0 43 27 57
52 27 21 -27 59 -27 76 -1 9 15 23 20 60 20 43 0 52 -4 85 -40 32 -35 42 -40
81 -40 33 0 48 -5 58 -19 11 -15 28 -21 69 -23 l54 -3 3 -74 3 -74 -41 -38
c-30 -28 -40 -45 -40 -68 0 -21 -6 -32 -20 -36 -14 -4 -20 -15 -20 -35 0 -19
-7 -33 -21 -40 -39 -21 -16 -35 54 -32 58 3 67 1 79 -17 12 -19 22 -21 119
-21 100 0 107 -1 127 -25 12 -14 27 -25 33 -25 6 0 10 -10 9 -22 -3 -39 -1
-45 20 -51 27 -7 27 -47 0 -54 -21 -6 -22 -8 -22 -60 -1 -25 9 -41 41 -71 l42
-39 -3 -74 -3 -74 -35 -3 c-20 -2 -40 -12 -48 -23 -8 -11 -25 -19 -43 -19 -27
0 -29 -3 -29 -35 0 -19 -4 -35 -10 -35 -22 0 -70 -60 -70 -89 0 -21 -6 -32
-20 -36 -11 -3 -20 -12 -20 -18 -1 -7 0 -99 0 -205 l1 -193 -54 -54 c-36 -36
-63 -55 -78 -55 -13 0 -30 -9 -37 -20 -9 -15 -23 -20 -60 -20 -36 0 -50 -5
-60 -20 -9 -15 -23 -20 -60 -20 -36 0 -50 -5 -60 -20 -10 -17 -23 -20 -80 -20
-56 0 -69 -3 -80 -20 -11 -18 -23 -20 -100 -20 -76 0 -89 -2 -100 -20 -8 -13
-23 -20 -42 -20 -32 0 -33 -3 -30 -61 1 -28 -4 -41 -21 -52 -20 -14 -22 -23
-20 -100 2 -77 0 -87 -20 -100 -20 -14 -22 -24 -20 -100 2 -78 0 -87 -20 -101
-19 -13 -22 -23 -20 -80 2 -56 -1 -66 -20 -80 -19 -13 -22 -23 -20 -80 2 -56
-1 -66 -20 -80 -20 -13 -22 -23 -20 -96 2 -80 1 -82 -31 -116 l-33 -34 -427 0
c-410 0 -427 1 -440 19 -8 11 -28 21 -48 23 l-35 3 -3 95 c-3 88 -1 96 19 113
19 15 22 26 20 81 -2 56 1 66 20 80 19 13 22 23 20 78 -2 56 1 66 23 85 20 18
23 28 19 61 -4 33 -2 42 17 55 20 14 23 24 21 79 -2 57 1 66 23 85 21 18 24
28 19 58 -5 31 -2 41 20 60 21 20 24 30 20 63 -4 33 -2 42 18 55 20 14 22 24
20 79 -2 54 1 64 21 80 l23 19 -22 16 c-30 21 -30 65 0 86 l22 16 -23 19 c-18
14 -23 27 -22 53 3 58 3 59 -48 59 -36 0 -50 -5 -60 -20 -11 -18 -23 -20 -100
-20 -76 0 -89 -2 -100 -20 -11 -18 -23 -20 -117 -20 l-105 0 -58 -60 c-37 -37
-67 -60 -80 -60 -15 0 -56 -34 -121 -100 -64 -64 -106 -100 -120 -100 -14 0
-63 -42 -140 -120 -77 -78 -127 -120 -140 -120 -14 0 -57 -36 -120 -100 -62
-62 -107 -100 -119 -100 -12 0 -48 -27 -86 -64 -50 -50 -65 -72 -68 -98 -3
-32 -4 -33 -56 -36 -51 -3 -54 -5 -136 -87 -68 -66 -85 -90 -88 -117 -3 -32
-4 -33 -56 -36 -52 -3 -55 -5 -131 -83 -50 -50 -86 -79 -100 -79 -14 0 -56
-35 -120 -100 -63 -64 -106 -100 -120 -100 -14 0 -69 -48 -160 -140 -91 -91
-147 -140 -160 -140 -13 0 -45 -24 -79 -60 -42 -43 -66 -60 -85 -60 -23 0 -26
-5 -29 -37 -3 -35 -6 -38 -38 -41 -20 -2 -40 -12 -48 -23 -11 -15 -25 -19 -78
-19 -56 0 -69 -3 -84 -22 l-18 -23 -57 58 c-53 53 -57 61 -52 93 5 28 1 39
-20 58 -21 20 -25 30 -20 59 4 29 1 41 -21 64 -15 16 -35 33 -44 36 -24 9 -23
44 2 52 11 3 20 10 20 14 0 11 -42 47 -62 54 -24 8 -23 34 2 49 29 19 25 26
-17 30 -31 2 -39 7 -41 25 -3 17 3 26 22 33 37 14 33 48 -6 63 -12 4 -18 17
-18 39 0 23 -7 37 -21 46 -18 11 -21 20 -16 53 4 34 1 44 -20 64 -22 19 -25
29 -20 59 5 30 2 40 -20 60 -22 20 -25 30 -20 60 5 30 2 40 -20 60 -22 20 -25
30 -20 60 5 30 2 40 -20 60 -22 20 -25 30 -20 60 5 30 2 40 -20 60 -22 20 -25
30 -20 60 6 35 -10 66 -34 66 -5 0 -9 15 -9 33 0 22 -7 36 -21 45 -18 11 -21
20 -16 54 4 33 1 43 -19 61 -22 19 -25 30 -24 77 1 30 1 60 1 67 -1 6 -18 13
-38 15 -31 2 -39 7 -41 25 -3 17 3 26 22 33 37 14 33 48 -6 63 -12 4 -18 17
-18 36 0 31 -31 72 -63 84 -26 10 -21 46 8 57 34 13 33 47 -1 60 -19 7 -25 16
-22 33 2 18 10 23 41 25 35 3 37 5 37 38 0 45 26 57 53 23 l19 -24 15 22 c13
20 24 23 82 23 55 0 68 3 79 20 9 15 23 20 60 20 36 0 50 5 60 20 9 15 23 20
60 20 36 0 50 5 60 20 10 17 23 20 80 20 56 0 69 3 80 20 10 17 23 20 80 20
56 0 69 3 80 20 10 17 23 20 80 20 56 0 69 3 80 20 10 17 23 20 80 20 56 0 69
3 80 20 10 17 23 20 80 20 56 0 69 3 80 20 9 15 23 20 60 20 36 0 50 5 60 20
10 17 23 20 80 20 56 0 69 3 80 20 9 15 23 20 60 20 36 0 50 5 60 20 10 17 23
20 80 20 56 0 69 3 80 20 11 18 23 20 100 20 77 0 89 2 100 20 10 17 21 20 60
18 35 -2 47 1 47 11 0 9 -11 15 -27 15 -19 1 -44 19 -83 59 -38 39 -64 57 -80
57 -14 0 -30 9 -37 20 -8 12 -24 20 -40 20 -15 0 -33 8 -40 19 -11 15 -28 21
-69 23 l-54 3 -3 38 c-3 33 -6 37 -31 37 -19 0 -38 12 -64 40 -22 25 -45 40
-60 40 -14 0 -37 15 -60 40 -22 25 -45 40 -60 40 -14 0 -37 15 -60 40 -24 26
-45 40 -62 40 -14 0 -30 9 -37 20 -12 19 -24 20 -240 20 -217 0 -228 1 -240
20 -12 18 -24 20 -120 20 -97 0 -109 2 -120 20 -11 18 -24 20 -100 20 -77 0
-89 2 -100 20 -11 17 -24 20 -80 20 -57 0 -70 3 -80 20 -10 15 -24 20 -60 20
-37 0 -51 5 -60 20 -8 12 -24 20 -40 20 -17 0 -33 8 -40 20 -10 15 -24 20 -60
20 -37 0 -51 5 -60 20 -8 12 -24 20 -38 20 -17 0 -38 13 -63 40 -24 26 -45 40
-62 40 -14 0 -30 9 -37 20 -8 12 -24 20 -40 20 -17 0 -33 8 -40 20 -8 12 -24
20 -38 20 -17 0 -38 13 -63 40 -21 23 -46 40 -58 40 -14 0 -44 22 -81 60 -34
36 -66 60 -79 60 -13 0 -63 42 -139 119 -98 99 -124 120 -152 123 -29 3 -33 7
-36 36 -3 28 -32 62 -193 223 -104 104 -194 189 -199 189 -6 0 -10 14 -10 31
0 23 -10 40 -41 68 -38 37 -40 40 -37 92 l3 54 97 3 c89 2 99 1 110 -18 11
-18 23 -20 100 -20 77 0 89 -2 100 -20 11 -17 24 -20 80 -20 57 0 70 -3 80
-20 11 -17 24 -20 80 -20 57 0 70 -3 80 -20 11 -17 24 -20 80 -20 57 0 70 -3
80 -20 10 -15 24 -20 60 -20 37 0 51 -5 60 -20 10 -15 24 -20 60 -20 37 0 51
-5 60 -20 10 -15 24 -20 60 -20 37 0 51 -5 60 -20 8 -12 24 -20 40 -20 17 0
33 -8 40 -20 8 -12 24 -20 40 -20 17 0 33 -8 40 -20 8 -12 24 -20 40 -20 17 0
33 -8 40 -20 8 -12 24 -20 40 -20 17 0 33 -8 40 -20 8 -12 24 -20 38 -20 17 0
38 -13 63 -40 24 -26 45 -40 62 -40 14 0 30 -9 37 -20 8 -12 24 -20 38 -20 17
0 38 -13 62 -39 19 -21 45 -42 56 -45 30 -10 40 14 14 32 -12 8 -22 25 -22 37
0 35 -82 113 -123 117 -31 3 -32 4 -33 54 0 44 -4 55 -32 82 -18 18 -37 32
-42 32 -6 0 -10 14 -10 30 0 24 -14 44 -70 100 -39 39 -75 70 -80 70 -6 0 -10
13 -10 30 0 24 -17 46 -85 116 l-86 86 -18 -23 c-26 -32 -51 -19 -51 26 l0 35
-50 0 c-39 0 -53 4 -62 20 -8 12 -24 20 -40 20 -17 0 -33 8 -40 20 -10 15 -24
20 -60 20 -37 0 -51 5 -60 20 -8 12 -24 20 -40 20 -17 0 -33 8 -40 20 -8 12
-24 20 -40 20 -17 0 -33 8 -40 20 -8 12 -24 20 -40 20 -17 0 -33 8 -40 20 -8
12 -24 20 -40 20 -17 0 -33 8 -40 20 -8 12 -24 20 -40 20 -17 0 -33 8 -40 20
-7 11 -24 20 -37 20 -17 0 -43 19 -83 60 -35 37 -66 60 -79 60 -14 0 -50 29
-100 80 -49 50 -87 80 -100 80 -14 0 -70 50 -165 145 -79 80 -148 145 -154
145 -5 0 -10 14 -10 30 0 23 -12 42 -50 80 -28 28 -55 50 -60 50 -6 0 -10 14
-10 30 0 30 -47 90 -70 90 -6 0 -10 15 -10 34 0 26 -5 36 -20 41 -14 4 -20 15
-20 36 0 29 -48 89 -70 89 -6 0 -10 15 -10 34 0 26 -5 36 -20 41 -15 5 -20 15
-20 40 0 25 -5 35 -20 40 -14 5 -20 15 -20 38 0 22 -7 36 -21 45 -18 11 -21
20 -16 54 5 37 2 43 -40 84 -41 39 -45 47 -40 79 6 34 -10 65 -34 65 -5 0 -9
15 -9 34 0 26 -5 36 -20 41 -15 5 -20 15 -20 40 0 25 -5 35 -20 40 -14 5 -20
15 -20 38 0 22 -7 36 -21 45 -18 11 -21 20 -16 53 4 34 1 44 -20 64 -22 19
-25 29 -20 60 5 30 2 40 -19 57 -19 17 -24 31 -24 68 0 82 52 96 113 30 32
-35 42 -40 80 -40 37 0 48 -5 80 -40 24 -26 45 -40 62 -40 14 0 30 -9 37 -20
17 -27 64 -27 71 1 8 29 51 22 55 -9 3 -17 -2 -25 -17 -29 -12 -3 -21 -8 -21
-12 1 -15 50 -51 72 -51 15 0 37 -15 61 -40 21 -23 46 -40 58 -40 14 0 50 -29
100 -80 51 -52 86 -80 101 -80 13 0 43 -23 80 -60 62 -65 101 -78 111 -39 9
32 51 22 55 -13 3 -22 -1 -28 -16 -28 -11 0 -22 -7 -26 -15 -9 -25 5 -45 31
-45 19 0 51 -26 124 -100 70 -71 106 -100 122 -100 16 0 36 -14 58 -39 18 -22
41 -42 51 -44 17 -5 26 -47 11 -47 -5 0 -14 -4 -22 -9 -12 -8 4 -28 72 -94 47
-46 93 -87 102 -90 9 -4 15 -19 15 -36 0 -32 34 -75 69 -86 29 -9 39 16 13 33
-14 9 -22 25 -22 42 0 19 -6 29 -20 33 -15 4 -20 14 -20 40 0 26 -5 36 -20 40
-15 4 -20 14 -20 39 0 23 -6 37 -21 46 -18 11 -21 20 -16 53 5 38 -10 69 -34
69 -5 0 -9 15 -9 33 0 22 -7 36 -21 45 -18 11 -21 20 -16 53 5 38 -10 69 -34
69 -5 0 -9 15 -9 33 0 22 -7 36 -21 45 -18 11 -21 20 -16 53 5 38 -10 69 -34
69 -5 0 -9 15 -9 34 0 25 -5 35 -20 39 -16 4 -20 12 -18 38 3 36 -17 51 -27
19 -5 -15 -14 -20 -28 -18 -29 4 -36 45 -10 55 18 6 33 22 33 35 0 3 -50 56
-110 117 -69 69 -118 111 -130 111 -14 0 -110 89 -280 259 -222 223 -263 260
-292 263 -26 2 -34 8 -36 26 -3 17 2 25 17 29 12 3 21 8 21 12 0 9 -60 61 -71
61 -5 0 -9 14 -9 30 0 30 -47 90 -70 90 -6 0 -10 14 -10 30 0 30 -47 90 -70
90 -6 0 -10 15 -10 34 0 26 -5 36 -20 41 -15 5 -20 15 -20 40 0 25 -5 35 -20
40 -14 5 -20 15 -20 38 0 22 -7 36 -21 45 -18 11 -21 20 -16 53 5 38 -10 69
-34 69 -5 0 -9 15 -9 33 0 22 -7 36 -21 45 -17 11 -20 22 -18 78 2 57 0 67
-21 81 -19 13 -21 22 -17 55 4 33 1 43 -19 61 -22 19 -25 29 -23 85 2 55 -1
65 -20 78 -20 15 -22 23 -20 121 1 97 0 106 -20 119 -21 15 -22 21 -21 241 1
217 1 226 -19 240 -20 13 -21 23 -21 202 0 184 1 189 22 204 l23 16 -22 16
c-30 21 -29 43 1 54 13 5 26 17 30 26 4 12 16 15 43 13 36 -3 38 -5 41 -40 3
-35 5 -37 40 -40 34 -3 37 -6 40 -37 3 -32 50 -91 72 -91 6 0 10 -14 10 -30 0
-30 47 -90 70 -90 6 0 10 -14 10 -30 0 -30 47 -90 70 -90 6 0 10 -13 10 -30 0
-38 40 -78 82 -82 32 -3 33 -4 34 -54 0 -44 4 -55 32 -82 18 -18 37 -32 42
-32 6 0 10 -14 10 -30 0 -30 47 -90 70 -90 6 0 10 -14 10 -31 0 -24 12 -42 61
-89 57 -56 61 -62 56 -95 -6 -34 10 -65 34 -65 5 0 9 -15 9 -34 0 -26 5 -36
20 -41 14 -4 20 -15 20 -36 0 -23 11 -40 41 -69 38 -35 41 -42 36 -75 -5 -29
-1 -39 20 -59 22 -20 25 -30 20 -60 -6 -35 10 -66 34 -66 5 0 9 -15 9 -33 0
-22 7 -36 21 -45 18 -11 21 -20 16 -54 -4 -33 -1 -43 19 -61 21 -18 24 -29 24
-86 0 -55 3 -68 20 -79 16 -9 20 -23 20 -61 0 -33 5 -51 14 -54 8 -3 16 -21
18 -39 2 -21 8 -33 18 -33 12 0 14 14 11 85 -3 70 -7 87 -23 98 -17 12 -19 26
-17 139 1 117 0 126 -20 140 -21 14 -21 19 -21 320 1 300 1 306 -20 320 -19
14 -21 24 -20 111 1 54 1 102 1 109 -1 6 -10 15 -21 18 -14 4 -20 15 -20 36 0
29 -48 89 -70 89 -6 0 -10 14 -10 30 0 30 -47 90 -70 90 -6 0 -10 15 -10 34 0
26 -5 36 -20 41 -14 4 -20 15 -20 36 0 23 -11 40 -41 69 -38 35 -41 42 -36 74
5 31 1 40 -28 71 -19 19 -39 35 -45 35 -5 0 -10 15 -10 34 0 26 -5 36 -20 41
-14 5 -20 15 -20 38 0 22 -7 36 -21 45 -18 11 -20 21 -16 52 4 32 0 44 -22 68
-14 16 -34 32 -44 35 -24 9 -21 33 6 52 l22 16 -24 18 c-20 15 -23 24 -18 55
5 31 2 41 -19 59 -23 20 -25 27 -23 105 2 75 0 85 -20 98 -21 15 -21 16 -21
484 0 466 0 469 21 484 20 13 21 23 20 119 -2 98 0 106 20 121 19 13 22 23 20
80 -2 56 1 66 20 80 19 13 22 23 20 80 -2 56 1 66 20 80 19 13 22 23 20 78 -2
56 1 66 23 85 20 18 23 28 19 61 -4 33 -2 42 17 55 21 14 23 24 21 81 -2 54 1
66 18 78 11 8 21 28 23 48 3 34 4 35 48 35 44 0 45 -1 48 -35 2 -20 12 -40 24
-48 16 -12 19 -22 15 -54 -4 -33 -1 -43 20 -63 22 -19 25 -29 20 -59 -5 -30
-2 -40 20 -60 22 -20 25 -30 20 -60 -5 -30 -2 -40 20 -60 22 -20 25 -30 20
-61 -5 -30 -2 -40 19 -58 22 -19 25 -28 23 -85 -2 -55 1 -65 20 -78 19 -14 22
-24 20 -80 -2 -57 0 -67 21 -81 19 -13 21 -22 17 -55 -4 -33 -1 -43 19 -61 22
-19 25 -29 23 -85 -2 -55 1 -65 20 -78 19 -14 22 -24 20 -80 -2 -57 1 -67 20
-80 20 -14 22 -23 20 -101 -2 -76 0 -86 20 -99 21 -15 22 -21 21 -201 -2 -179
-1 -185 20 -200 21 -15 22 -21 18 -162 -3 -125 -1 -146 12 -146 12 0 15 15 16
69 1 52 6 72 18 81 12 9 16 29 16 78 0 56 3 68 22 81 18 13 21 24 19 80 -2 56
1 66 20 80 19 13 22 23 20 80 -2 56 1 66 20 79 20 14 22 24 20 99 -2 78 0 85
23 105 21 18 24 28 19 59 -5 31 -2 40 18 55 l24 19 -24 19 c-20 15 -23 24 -18
55 5 31 2 41 -19 59 -24 20 -25 26 -23 125 1 96 0 105 -20 119 -20 14 -22 22
-20 120 1 97 0 106 -20 120 -21 14 -22 22 -20 160 1 136 0 146 -20 159 -19 14
-21 24 -21 144 0 120 2 130 21 144 20 13 21 23 20 159 -2 139 -1 146 20 161
20 13 22 23 20 99 -2 78 0 87 20 101 19 13 22 23 20 78 -2 57 1 66 23 85 21
18 24 28 19 58 -5 31 -2 41 20 60 21 20 24 30 20 64 -5 33 -2 42 16 53 14 9
21 23 21 45 0 18 4 33 9 33 24 0 39 31 34 69 -5 33 -2 42 16 53 14 9 21 23 21
45 0 23 6 33 20 38 15 5 20 15 20 40 0 25 5 35 20 40 15 5 20 15 20 40 0 25 5
35 20 40 15 5 20 15 20 41 0 19 4 34 10 34 22 0 70 60 70 89 0 21 6 32 20 36
15 5 20 15 20 41 0 19 4 34 10 34 23 0 70 60 70 90 0 16 4 30 10 30 23 0 70
60 70 90 0 16 4 30 10 30 5 0 32 22 60 50 38 38 50 57 50 80 0 16 5 30 10 30
6 0 31 21 55 47 l44 47 36 -35 c41 -40 46 -79 12 -103 l-22 -16 23 -16 c28
-21 30 -68 2 -87 -20 -14 -21 -22 -20 -520 0 -504 0 -506 -21 -521 -20 -13
-21 -22 -20 -139 2 -119 1 -126 -20 -141 -19 -13 -22 -23 -20 -80 2 -56 -1
-66 -20 -79 -20 -14 -21 -23 -20 -106 2 -82 0 -90 -19 -96 -21 -7 -23 -11 -20
-65 1 -27 -5 -41 -24 -58 -14 -12 -26 -28 -26 -36 0 -32 22 -25 65 20 33 34
45 55 45 76 0 21 6 31 20 35 15 4 20 14 20 39 0 19 4 34 10 34 23 0 70 60 70
90 0 16 4 30 10 30 22 0 70 60 70 89 0 21 6 32 20 36 15 5 20 15 20 40 0 25 5
35 20 40 15 5 20 15 20 40 0 25 5 35 20 40 15 5 20 15 20 41 0 19 4 34 9 34
24 0 39 31 34 69 -5 33 -2 42 16 53 14 9 21 23 21 45 0 18 4 33 9 33 24 0 40
31 34 66 -5 30 -2 40 20 59 21 20 24 30 20 64 -5 33 -2 42 16 53 14 9 21 23
21 45 0 18 4 33 9 33 24 0 39 31 34 69 -5 33 -2 42 16 53 14 9 21 23 21 45 0
18 5 33 10 33 6 0 26 16 45 35 29 31 33 40 28 71 -5 32 -2 39 36 74 31 29 41
46 41 69 0 17 4 31 10 31 23 0 70 60 70 90 0 16 4 30 10 30 5 0 50 40 100 90
73 73 90 95 90 120 0 16 5 30 10 30 6 0 20 11 32 25 12 14 32 25 45 25 16 0
58 35 142 120 78 78 126 120 140 120 12 0 38 17 58 40 23 25 46 40 60 40 15 0
38 15 60 40 23 25 46 40 60 40 15 0 38 15 60 40 25 27 46 40 63 40 14 0 30 8
38 20 9 15 23 20 57 20 40 0 50 5 82 40 25 27 46 40 63 40 14 0 30 8 38 20 7
12 23 20 40 20 16 0 32 8 40 20 9 15 23 20 60 20 36 0 50 5 60 20 7 12 23 20
40 20 16 0 32 8 40 20 9 15 23 20 60 20 36 0 50 5 60 20 19 31 62 25 100 -14z
m8427 14 c5 -16 15 -20 56 -20 38 0 52 -4 61 -20 8 -12 24 -20 40 -20 17 0 33
-8 40 -20 8 -12 24 -20 40 -20 17 0 33 -8 40 -20 8 -12 24 -20 40 -20 17 0 33
-8 40 -20 10 -15 24 -20 60 -20 37 0 51 -5 60 -20 8 -12 24 -20 40 -20 17 0
33 -8 40 -20 8 -12 24 -20 40 -20 17 0 33 -8 40 -20 8 -12 24 -20 40 -20 17 0
33 -8 40 -20 8 -12 24 -20 40 -20 17 0 33 -8 40 -20 8 -12 24 -20 38 -20 17 0
38 -13 63 -40 22 -25 45 -40 60 -40 14 0 37 -15 60 -40 22 -24 45 -40 59 -40
14 0 43 -22 80 -61 l58 -62 18 23 c25 31 52 21 52 -20 0 -26 25 -55 170 -200
94 -94 175 -170 180 -170 6 0 10 -14 10 -30 0 -30 47 -90 70 -90 6 0 10 -14
10 -30 0 -30 47 -90 70 -90 6 0 10 -15 10 -34 0 -26 5 -36 20 -41 14 -4 20
-15 20 -36 0 -23 11 -40 41 -69 38 -35 41 -42 36 -75 -5 -33 -2 -40 40 -80 41
-41 45 -48 40 -80 -5 -29 -1 -39 20 -59 22 -20 25 -30 20 -60 -5 -30 -2 -40
20 -60 22 -20 25 -30 20 -60 -6 -35 10 -66 34 -66 5 0 9 -15 9 -33 0 -22 7
-36 21 -45 18 -11 21 -20 16 -53 -5 -38 10 -69 34 -69 5 0 9 -15 9 -34 0 -26
5 -36 20 -41 15 -5 20 -15 20 -40 0 -25 5 -35 20 -40 15 -5 20 -15 20 -40 0
-25 5 -35 20 -40 15 -5 20 -15 20 -40 0 -25 5 -35 20 -40 14 -4 20 -15 20 -36
0 -29 48 -89 70 -89 6 0 10 -15 10 -34 0 -26 5 -36 20 -41 15 -5 20 -15 20
-40 0 -24 5 -34 20 -38 15 -4 20 -14 20 -40 0 -27 5 -36 21 -40 18 -5 21 -11
16 -36 -9 -42 10 -49 42 -17 l26 27 -23 18 c-21 15 -23 24 -20 79 2 55 0 64
-20 78 -21 15 -23 23 -21 101 2 76 0 86 -20 100 -20 13 -22 23 -20 100 2 76 0
86 -20 99 -20 15 -22 23 -20 121 1 97 0 106 -20 119 -21 15 -22 20 -21 281 1
257 1 266 -19 280 -20 14 -21 23 -21 282 0 267 0 269 23 284 l22 16 -22 16
c-31 22 -29 35 13 68 l35 29 34 -34 c23 -21 35 -42 35 -60 0 -24 4 -27 38 -30
34 -3 37 -6 40 -37 3 -32 50 -91 72 -91 6 0 10 -14 10 -30 0 -30 47 -90 70
-90 6 0 10 -14 10 -31 0 -23 10 -40 41 -69 38 -35 41 -42 36 -74 -5 -31 -1
-40 28 -71 19 -19 39 -35 45 -35 5 0 10 -14 10 -31 0 -23 10 -40 41 -69 38
-35 41 -42 36 -74 -6 -35 10 -66 34 -66 5 0 9 -15 9 -34 0 -26 5 -36 20 -41
15 -5 20 -15 20 -40 0 -25 5 -35 20 -40 14 -5 20 -15 20 -38 0 -22 7 -36 21
-45 18 -11 21 -20 16 -53 -5 -38 10 -69 34 -69 5 0 9 -15 9 -33 0 -22 7 -36
21 -45 18 -11 21 -20 16 -54 -4 -33 -1 -43 19 -61 23 -20 25 -28 23 -105 -2
-75 0 -85 20 -98 20 -15 22 -23 20 -121 -1 -96 0 -106 20 -119 21 -15 21 -21
21 -284 0 -262 -1 -269 -21 -284 -20 -13 -21 -23 -20 -159 2 -138 1 -146 -20
-160 -20 -14 -21 -23 -20 -120 2 -98 0 -106 -20 -121 -20 -13 -22 -23 -20 -98
1 -87 -3 -100 -31 -111 -25 -9 -23 -48 2 -54 23 -6 35 -42 26 -78 -5 -19 0
-30 19 -47 24 -21 26 -28 24 -106 -2 -75 0 -85 20 -99 19 -13 22 -23 20 -79
-2 -57 0 -67 21 -81 19 -13 21 -22 17 -55 -4 -33 -1 -43 19 -61 22 -19 25 -29
23 -85 -2 -54 1 -65 19 -78 20 -14 22 -24 22 -121 0 -86 3 -108 16 -118 12 -9
17 -29 18 -81 1 -54 4 -69 16 -69 13 0 15 46 11 366 l-3 366 22 16 c21 15 22
22 21 140 -2 118 -1 126 20 141 20 13 22 23 20 98 -2 77 0 85 23 105 20 18 23
28 19 61 -4 33 -2 42 17 55 20 14 23 24 21 79 -2 57 1 66 23 85 21 18 24 28
19 58 -5 31 -2 41 20 61 22 20 25 30 20 60 -5 30 -2 40 20 60 22 20 25 30 20
60 -5 30 -2 40 20 60 22 20 25 30 20 60 -5 30 -2 40 20 59 21 20 24 30 20 63
-4 33 -2 42 17 55 21 14 23 24 21 81 -2 57 1 66 21 80 16 11 22 24 20 46 -1
16 2 30 7 30 6 0 21 12 35 27 l25 27 37 -37 c32 -32 36 -41 31 -72 -5 -29 -1
-39 20 -59 22 -20 25 -30 20 -60 -5 -30 -2 -40 20 -60 22 -20 25 -30 20 -61
-5 -30 -2 -40 19 -58 23 -20 25 -27 23 -105 -2 -75 0 -85 20 -99 19 -13 22
-23 20 -79 -2 -57 1 -67 20 -80 20 -14 22 -23 20 -101 -2 -76 0 -86 20 -99 21
-15 22 -22 20 -181 -1 -157 0 -166 20 -180 20 -14 21 -22 21 -243 0 -221 -1
-229 -21 -244 -20 -13 -21 -23 -20 -139 2 -118 1 -126 -20 -141 -20 -13 -22
-23 -20 -98 2 -77 0 -85 -23 -105 -20 -18 -23 -28 -19 -61 5 -34 2 -43 -16
-54 -14 -9 -21 -23 -21 -45 0 -18 -4 -33 -9 -33 -24 0 -39 -31 -34 -69 5 -33
2 -42 -16 -53 -14 -9 -21 -23 -21 -45 0 -18 -4 -33 -9 -33 -24 0 -40 -31 -34
-66 5 -32 2 -39 -36 -74 -31 -29 -41 -46 -41 -69 0 -17 -4 -31 -10 -31 -22 0
-70 -60 -70 -89 0 -21 -6 -32 -20 -36 -15 -5 -20 -15 -20 -41 0 -19 -4 -34
-10 -34 -23 0 -70 -60 -70 -90 0 -16 -4 -30 -10 -30 -5 0 -33 -23 -61 -51
l-50 -50 1 -224 c1 -214 0 -224 -20 -238 -20 -14 -20 -24 -21 -336 0 -178 2
-325 5 -328 3 -4 17 6 31 21 19 20 25 38 25 70 0 33 6 47 24 64 21 17 24 27
19 57 -5 31 -2 41 20 60 21 20 24 30 20 64 -5 33 -2 42 16 53 14 9 21 23 21
45 0 23 6 33 20 38 15 5 20 15 20 40 0 25 5 35 20 40 15 5 20 15 20 40 0 25 5
35 20 40 15 5 20 15 20 40 0 25 5 35 20 40 15 5 20 15 20 40 0 25 5 35 20 40
15 5 20 15 20 41 0 19 4 34 10 34 23 0 70 60 70 90 0 16 4 30 10 30 5 0 32 22
60 50 37 37 50 57 50 79 0 21 6 32 20 36 15 5 20 15 20 41 0 19 4 34 10 34 5
0 32 22 60 50 38 38 50 57 50 80 0 16 4 30 10 30 5 0 32 22 60 50 37 37 50 57
50 79 0 21 6 32 20 36 15 5 20 15 20 41 0 19 4 34 10 34 5 0 32 22 60 50 38
38 50 57 50 80 0 16 5 30 10 30 6 0 30 20 53 45 44 46 80 58 105 33 9 -9 12
-129 12 -479 0 -465 0 -468 -21 -483 -20 -13 -21 -23 -20 -119 2 -98 0 -106
-20 -121 -19 -13 -22 -23 -20 -78 2 -57 -1 -66 -23 -85 -21 -18 -24 -28 -19
-58 5 -31 2 -41 -20 -61 -22 -20 -25 -30 -20 -60 5 -30 2 -40 -20 -59 -21 -20
-24 -30 -20 -64 5 -33 2 -42 -16 -53 -14 -9 -21 -23 -21 -45 0 -18 -4 -33 -9
-33 -24 0 -39 -31 -34 -69 5 -33 2 -42 -16 -53 -14 -9 -21 -23 -21 -45 0 -18
-4 -33 -10 -33 -22 0 -70 -60 -70 -89 0 -21 -6 -32 -20 -36 -15 -5 -20 -15
-20 -41 0 -19 -4 -34 -10 -34 -5 0 -24 -14 -42 -32 -28 -27 -32 -38 -32 -82
l-1 -51 -37 -3 c-36 -3 -38 -5 -38 -38 0 -19 -4 -34 -10 -34 -5 0 -41 -31 -80
-70 -56 -56 -70 -76 -70 -100 0 -16 -4 -30 -10 -30 -22 0 -69 -59 -72 -91 -3
-31 -6 -34 -38 -37 -20 -2 -40 -12 -48 -23 -7 -10 -24 -19 -37 -19 -36 0 -113
-80 -117 -122 -3 -30 -6 -33 -40 -36 -35 -3 -37 -5 -40 -40 -3 -34 -6 -37 -36
-40 -46 -5 -122 -81 -122 -122 0 -16 -4 -30 -10 -30 -23 0 -70 -60 -70 -90 0
-16 -4 -30 -9 -30 -24 0 -39 -31 -34 -69 5 -33 2 -42 -16 -53 -14 -9 -21 -23
-21 -45 0 -23 -6 -33 -20 -38 -15 -5 -20 -15 -20 -41 0 -19 -4 -34 -9 -34 -24
0 -39 -31 -34 -69 5 -33 2 -42 -16 -53 -14 -9 -21 -23 -21 -45 0 -18 -4 -33
-9 -33 -24 0 -40 -31 -34 -66 5 -30 2 -40 -20 -59 -21 -20 -24 -30 -20 -64 5
-33 2 -42 -16 -53 -15 -9 -21 -23 -21 -46 0 -25 -5 -35 -20 -39 -15 -4 -20
-14 -20 -38 0 -25 -5 -35 -20 -40 -26 -8 -25 -17 4 -44 30 -28 47 -20 39 19
-4 22 -1 31 12 36 33 13 65 54 65 85 0 19 6 32 18 36 31 12 62 53 62 84 0 16
5 29 10 29 6 0 120 110 255 245 163 164 251 245 265 245 11 0 37 18 57 40 23
24 46 40 60 40 16 0 49 26 102 80 50 51 86 80 100 80 12 0 37 17 58 40 23 25
46 40 60 40 15 0 38 15 60 40 25 27 46 40 63 40 14 0 30 8 38 20 7 11 23 20
37 20 17 0 38 14 62 40 33 35 42 40 83 40 34 0 48 5 58 20 7 12 23 20 40 20
16 0 32 8 40 20 14 22 61 27 80 8 20 -20 14 -63 -12 -86 -21 -17 -24 -27 -19
-57 5 -31 2 -41 -20 -60 -21 -20 -24 -30 -20 -64 5 -33 2 -42 -16 -53 -13 -8
-21 -23 -21 -39 0 -16 -9 -33 -22 -42 l-23 -16 23 -16 c26 -19 29 -43 5 -52
-10 -4 -39 -29 -65 -55 -42 -44 -46 -52 -41 -84 5 -32 2 -39 -36 -74 -30 -29
-41 -46 -41 -69 0 -21 -6 -32 -20 -36 -15 -5 -20 -15 -20 -40 0 -25 -5 -35
-20 -40 -15 -5 -20 -15 -20 -40 0 -25 -5 -35 -20 -40 -15 -5 -20 -15 -20 -40
0 -25 -5 -35 -20 -40 -15 -5 -20 -15 -20 -40 0 -25 -5 -35 -20 -40 -15 -5 -20
-15 -20 -41 0 -19 -4 -34 -10 -34 -23 0 -70 -60 -70 -90 0 -16 -4 -30 -10 -30
-5 0 -41 -31 -80 -70 -56 -56 -70 -76 -70 -100 0 -16 -5 -30 -10 -30 -6 0
-102 -92 -215 -205 -157 -158 -209 -205 -229 -205 -21 0 -25 -5 -28 -38 -3
-34 -6 -37 -36 -40 -24 -2 -44 -15 -70 -43 -22 -24 -45 -39 -59 -39 -15 0 -38
-15 -60 -40 -23 -25 -46 -40 -60 -40 -15 0 -38 -15 -60 -40 -25 -27 -46 -40
-63 -40 -14 0 -30 -8 -38 -20 -7 -12 -23 -20 -40 -20 -16 0 -32 -8 -40 -20 -9
-15 -23 -20 -60 -20 -36 0 -50 -5 -60 -20 -7 -12 -23 -20 -40 -20 -16 0 -32
-8 -40 -20 -7 -12 -23 -20 -40 -20 -16 0 -32 -8 -40 -20 -9 -15 -23 -20 -60
-20 -36 0 -50 -5 -60 -20 -7 -12 -23 -20 -40 -20 -16 0 -32 -8 -40 -20 -7 -12
-23 -20 -40 -20 -16 0 -32 -8 -40 -20 -8 -13 -23 -20 -42 -20 -28 0 -30 -3
-30 -35 0 -19 -4 -35 -10 -35 -5 0 -32 -22 -60 -50 -38 -38 -50 -57 -50 -80 0
-16 -4 -30 -10 -30 -23 0 -70 -60 -70 -90 0 -16 -4 -30 -10 -30 -16 0 -120
-107 -120 -124 0 -9 11 -21 25 -26 31 -12 32 -34 4 -54 -12 -8 -18 -19 -14
-26 9 -15 47 -2 63 21 9 14 26 19 58 19 39 0 49 5 81 40 33 35 42 40 83 40 34
0 48 5 58 20 8 13 23 20 42 20 28 0 30 3 30 35 0 46 25 58 53 24 l19 -24 15
22 c10 14 26 23 42 23 15 0 31 8 39 20 7 12 23 20 40 20 16 0 32 8 40 20 10
17 23 20 80 20 56 0 69 3 80 20 10 17 23 20 80 20 56 0 69 3 80 20 10 17 23
20 80 20 56 0 69 3 80 20 10 17 23 20 80 20 56 0 69 3 80 20 11 18 23 20 120
20 97 0 108 2 120 20 11 19 21 21 90 18 l77 -3 3 -57 c3 -49 0 -58 -20 -72
-18 -13 -22 -25 -23 -68 l0 -53 -37 -3 c-35 -3 -37 -5 -40 -40 -3 -35 -5 -37
-40 -40 -36 -3 -38 -5 -38 -38 0 -19 -5 -34 -10 -34 -6 0 -120 -110 -255 -245
-163 -164 -251 -245 -265 -245 -11 0 -37 -18 -57 -40 -25 -27 -46 -40 -63 -40
-14 0 -30 -8 -38 -20 -7 -11 -23 -20 -37 -20 -18 0 -43 -18 -83 -60 -40 -41
-66 -60 -83 -60 -13 0 -30 -9 -37 -20 -7 -12 -23 -20 -40 -20 -16 0 -32 -8
-40 -20 -8 -13 -23 -20 -42 -20 -28 0 -30 -3 -30 -35 0 -46 -25 -58 -53 -24
l-19 24 -15 -23 c-10 -13 -26 -22 -42 -22 -15 0 -31 -8 -39 -20 -7 -12 -23
-20 -40 -20 -16 0 -32 -8 -40 -20 -7 -12 -23 -20 -38 -20 -15 0 -32 -7 -39
-16 -6 -9 -32 -18 -61 -22 -32 -3 -54 -12 -62 -24 -10 -13 -26 -18 -60 -18
-36 0 -50 -5 -60 -20 -7 -12 -23 -20 -40 -20 -16 0 -32 -8 -40 -20 -17 -28
-65 -26 -86 3 l-16 22 -16 -23 c-16 -21 -22 -22 -163 -22 -135 0 -147 -1 -159
-20 -11 -18 -23 -20 -140 -20 -118 0 -128 -1 -140 -21 -12 -18 -21 -20 -77
-17 -74 3 -87 -4 -55 -30 32 -26 21 -52 -22 -52 -22 0 -37 -7 -46 -20 -7 -12
-23 -20 -40 -20 -16 0 -32 -8 -40 -20 -7 -12 -23 -20 -40 -20 -16 0 -32 -8
-40 -20 -7 -11 -23 -20 -37 -20 -37 0 -155 -121 -155 -159 0 -21 -6 -32 -20
-36 -15 -5 -20 -15 -20 -42 0 -26 -5 -36 -19 -40 -43 -11 -35 -63 10 -63 18 0
34 -8 41 -20 8 -12 24 -20 40 -20 17 0 33 -8 40 -20 8 -12 24 -20 40 -20 17 0
33 -8 40 -20 10 -15 24 -20 58 -20 41 0 50 -5 83 -40 32 -35 42 -40 82 -40 34
0 48 -5 57 -20 8 -12 24 -20 39 -20 16 0 32 -9 42 -23 l15 -22 19 24 c28 34
53 22 53 -24 0 -32 2 -35 30 -35 19 0 34 -7 42 -20 8 -12 24 -20 39 -20 16 0
33 -9 43 -22 l16 -23 16 22 c23 32 105 33 126 1 19 -29 39 -15 31 22 -3 19 -1
30 6 30 6 0 33 22 61 50 38 38 50 57 50 80 0 16 5 30 10 30 6 0 20 11 32 25
19 22 30 25 87 25 55 0 68 3 79 20 9 15 23 20 60 20 36 0 50 5 60 20 8 13 23
20 42 20 19 0 34 -7 42 -20 7 -11 24 -20 37 -20 13 0 38 -14 57 -32 l34 -33 0
-107 c0 -99 -2 -108 -22 -122 -18 -13 -21 -24 -19 -66 2 -61 -20 -78 -51 -40
l-18 23 -25 -27 c-15 -16 -25 -39 -25 -57 0 -16 -4 -29 -9 -29 -6 0 -25 -13
-43 -30 l-32 -30 22 -16 c14 -10 22 -25 22 -45 0 -26 3 -29 30 -29 19 0 34 -7
42 -20 10 -15 24 -20 58 -20 41 0 50 -5 83 -40 32 -35 42 -40 82 -40 34 0 48
-5 57 -20 10 -15 24 -20 59 -20 37 0 50 -5 62 -23 l15 -22 38 43 c37 41 38 42
102 42 60 0 68 -3 98 -32 42 -41 45 -80 9 -104 -35 -23 -32 -37 20 -87 l45
-44 0 -87 c0 -75 -3 -87 -20 -98 -13 -9 -20 -24 -20 -45 0 -18 -4 -33 -10 -33
-22 0 -69 -59 -72 -91 -3 -31 -7 -34 -37 -37 -19 -2 -42 -13 -53 -25 l-18 -22
-19 23 c-16 19 -29 22 -85 22 -55 0 -68 3 -78 20 -8 12 -24 20 -40 20 -17 0
-33 8 -40 20 -10 15 -24 20 -60 20 -37 0 -51 5 -60 20 -8 12 -24 20 -39 20
-15 0 -34 10 -47 25 -12 14 -26 25 -32 25 -5 0 -10 16 -10 35 0 32 -2 35 -30
35 -19 0 -34 7 -42 20 -10 15 -24 20 -60 20 -37 0 -51 5 -60 20 -8 12 -24 20
-40 20 -17 0 -33 8 -40 20 -8 12 -24 20 -40 20 -17 0 -33 8 -40 20 -12 18 -24
20 -120 20 -97 0 -109 2 -120 20 -8 12 -24 20 -40 20 -17 0 -33 8 -40 20 -8
12 -24 20 -39 20 -16 0 -32 9 -41 22 -19 29 -39 15 -31 -22 3 -20 1 -30 -6
-30 -7 0 -31 -20 -54 -45 -39 -41 -47 -45 -90 -45 -36 0 -50 5 -59 20 -8 12
-24 20 -40 20 -17 0 -33 8 -40 20 -8 12 -24 20 -40 20 -17 0 -33 8 -40 20 -8
12 -24 20 -40 20 -17 0 -33 8 -40 20 -10 15 -24 20 -60 20 -37 0 -51 5 -60 20
-8 12 -24 20 -40 20 -17 0 -33 8 -40 20 -8 12 -24 20 -40 20 -17 0 -33 8 -40
20 -8 12 -24 20 -40 20 -17 0 -33 8 -40 20 -8 12 -24 20 -40 20 -17 0 -33 8
-40 20 -10 15 -24 20 -58 20 -41 0 -50 5 -83 40 -32 35 -42 40 -80 40 -35 0
-48 5 -61 22 l-16 23 -16 -23 c-10 -13 -27 -22 -43 -22 -15 0 -31 -8 -39 -20
-10 -17 -23 -20 -82 -20 -59 0 -72 3 -82 20 -10 15 -24 20 -60 20 -37 0 -51 5
-60 20 -8 12 -24 20 -40 20 -17 0 -33 8 -40 20 -10 15 -24 20 -60 20 -37 0
-51 5 -60 20 -10 15 -24 20 -60 20 -37 0 -51 5 -60 20 -8 12 -24 20 -40 20
-17 0 -33 8 -40 20 -10 15 -24 20 -60 20 -37 0 -51 5 -60 20 -8 12 -24 20 -40
20 -17 0 -33 8 -40 20 -10 15 -24 20 -60 20 -37 0 -51 5 -60 20 -8 12 -24 20
-40 20 -17 0 -33 8 -40 20 -8 12 -24 20 -40 20 -17 0 -33 8 -40 20 -10 15 -24
20 -60 20 -37 0 -51 5 -60 20 -10 15 -24 20 -60 20 -37 0 -51 5 -60 20 -8 12
-24 20 -40 20 -17 0 -33 8 -40 20 -8 12 -24 20 -40 20 -17 0 -33 8 -40 20 -10
15 -24 20 -60 20 -37 0 -51 5 -60 20 -8 12 -24 20 -39 20 -16 0 -32 9 -42 22
l-15 23 -28 -30 c-27 -29 -27 -33 -25 -131 2 -94 1 -103 -19 -117 -20 -14 -22
-24 -22 -117 0 -93 2 -103 22 -117 19 -13 21 -23 19 -100 -2 -77 0 -86 21
-100 19 -13 21 -22 17 -55 -4 -33 -1 -43 20 -63 22 -19 25 -29 20 -59 -5 -30
-2 -40 20 -60 22 -20 25 -30 20 -60 -6 -35 10 -66 34 -66 5 0 9 -15 9 -33 0
-22 7 -36 21 -45 18 -11 21 -20 16 -53 -5 -38 10 -69 34 -69 5 0 9 -15 9 -34
0 -26 5 -36 20 -41 15 -5 20 -15 20 -40 0 -25 5 -35 20 -40 15 -5 20 -15 20
-40 0 -25 5 -35 20 -40 14 -5 20 -15 20 -38 0 -21 7 -36 20 -45 17 -10 20 -23
20 -80 0 -63 -2 -69 -34 -100 -19 -18 -44 -32 -57 -32 -13 0 -30 -9 -37 -20
-7 -12 -23 -20 -40 -20 -16 0 -32 -8 -40 -20 -7 -12 -23 -20 -40 -20 -16 0
-32 -8 -40 -20 -7 -12 -23 -20 -40 -20 -16 0 -32 -8 -40 -20 -7 -12 -23 -20
-40 -20 -16 0 -32 -8 -40 -20 -7 -12 -23 -20 -40 -20 -16 0 -32 -8 -40 -20 -7
-12 -23 -20 -40 -20 -16 0 -32 -8 -40 -20 -7 -12 -23 -20 -40 -20 -16 0 -32
-8 -40 -20 -7 -12 -23 -20 -40 -20 -16 0 -32 -8 -40 -20 -9 -15 -23 -20 -57
-20 -40 0 -50 -5 -82 -40 -25 -27 -46 -40 -63 -40 -14 0 -30 -8 -38 -20 -10
-17 -23 -20 -78 -20 l-67 0 -55 55 c-50 51 -54 59 -49 91 5 31 1 39 -40 79
-41 41 -45 48 -40 80 5 29 1 39 -20 59 -22 20 -25 30 -20 61 5 33 2 40 -40 80
-41 41 -45 48 -40 80 5 29 1 39 -20 59 -22 20 -25 30 -20 61 5 30 2 40 -19 58
-22 19 -25 28 -23 85 2 55 -1 65 -20 78 -19 14 -22 24 -20 80 2 57 -1 67 -20
80 -20 14 -22 23 -20 101 2 76 0 86 -20 99 -20 15 -21 22 -21 225 l0 209 -29
0 c-20 0 -35 8 -46 23 -13 18 -25 22 -68 22 l-52 0 -3 97 c-2 89 -1 99 18 110
13 9 20 23 20 45 0 23 6 33 20 38 15 5 20 15 20 41 0 19 4 34 9 34 6 0 33 23
62 50 52 50 53 51 31 66 -13 9 -22 26 -22 40 0 17 -14 38 -40 63 -39 36 -40
39 -40 102 0 59 3 66 34 97 27 26 41 32 77 32 33 0 47 5 57 20 9 15 23 20 57
20 40 0 50 5 82 40 26 28 45 40 65 40 24 0 28 4 28 29 0 19 8 35 22 45 22 15
22 16 -26 61 -29 27 -57 45 -72 45 -13 0 -29 9 -36 20 -7 11 -24 20 -38 20
-15 0 -38 13 -58 34 -32 33 -33 36 -30 108 l3 73 38 3 c35 3 37 5 37 38 0 19
4 34 9 34 6 0 33 22 62 50 l52 50 -27 25 c-15 14 -38 25 -51 25 -14 0 -30 9
-37 20 -10 15 -24 20 -60 20 -37 0 -51 5 -60 20 -10 15 -24 20 -60 20 -37 0
-51 5 -60 20 -10 15 -24 20 -60 20 -34 0 -50 5 -60 18 -7 10 -21 21 -30 25
-24 9 -23 34 2 49 31 19 25 39 -9 32 -21 -5 -32 -1 -43 14 -8 12 -28 22 -48
24 -28 2 -36 8 -38 26 -3 17 2 25 17 29 24 6 23 1 21 120 l-2 93 75 75 c51 51
82 75 99 75 13 0 29 9 36 21 11 16 22 20 57 18 24 -2 47 0 51 4 8 8 -91 107
-107 107 -5 0 -9 14 -9 30 0 23 -12 42 -50 80 -28 28 -55 50 -60 50 -6 0 -10
14 -10 30 0 22 -12 42 -46 75 -40 40 -50 45 -90 45 -33 0 -47 5 -56 20 -10 15
-24 20 -57 20 -41 0 -48 4 -122 79 -61 63 -84 80 -111 83 -30 3 -33 6 -36 40
-2 26 -9 39 -23 43 -13 4 -19 15 -19 36 0 29 -48 89 -70 89 -6 0 -10 13 -10
30 0 23 -14 44 -62 93 -35 35 -71 66 -80 70 -25 9 -22 33 5 52 l22 16 -22 16
c-15 10 -23 26 -23 44 0 19 -6 30 -20 34 -14 4 -20 15 -20 35 0 34 -41 80 -70
80 -29 0 -70 -46 -70 -80 0 -20 -6 -31 -20 -35 -15 -5 -20 -15 -20 -40 0 -25
-5 -35 -20 -40 -22 -7 -22 -7 -20 -85 1 -47 -2 -58 -24 -77 -20 -18 -23 -28
-19 -61 4 -33 2 -42 -17 -55 -20 -14 -23 -24 -21 -79 2 -56 -1 -66 -23 -85
-20 -18 -23 -28 -19 -61 5 -34 2 -43 -16 -54 -13 -8 -21 -23 -21 -39 0 -16 -9
-33 -22 -42 l-23 -16 24 -19 c20 -16 23 -25 18 -56 -5 -30 -2 -40 20 -60 22
-20 25 -30 20 -60 -6 -35 10 -66 34 -66 5 0 9 -15 9 -33 0 -22 7 -36 21 -45
18 -11 21 -20 16 -53 -5 -38 10 -69 34 -69 5 0 9 -13 9 -30 0 -18 10 -39 25
-55 26 -25 26 -25 210 -25 174 0 186 -1 197 -20 11 -17 24 -20 80 -20 57 0 70
-3 80 -20 7 -11 24 -20 37 -20 17 0 53 -30 127 -105 57 -58 108 -105 114 -105
5 0 10 -15 10 -33 0 -21 7 -36 20 -45 18 -11 20 -23 20 -102 0 -76 -3 -91 -19
-102 -11 -8 -21 -28 -23 -48 l-3 -35 -94 -3 -95 -3 -38 41 c-25 26 -47 40 -63
40 -14 0 -30 9 -37 20 -8 12 -24 20 -39 20 -16 0 -32 9 -41 22 -20 30 -38 15
-33 -30 2 -20 4 -40 4 -43 1 -4 10 -9 21 -12 15 -4 20 -14 20 -40 0 -27 5 -37
20 -42 14 -5 20 -15 20 -38 0 -21 7 -36 20 -45 19 -11 20 -23 20 -162 0 -139
-1 -151 -20 -162 -13 -9 -20 -24 -20 -45 0 -18 -4 -33 -10 -33 -22 0 -69 -59
-72 -91 -3 -31 -6 -34 -38 -37 -20 -2 -40 -12 -48 -23 -10 -14 -25 -19 -60
-19 -40 0 -52 5 -80 34 -31 32 -33 38 -31 96 2 53 0 63 -20 77 -20 13 -22 22
-18 55 5 37 -10 68 -34 68 -5 0 -9 15 -9 33 0 22 -7 36 -21 45 -18 11 -21 20
-16 53 5 36 2 44 -33 78 -23 23 -40 49 -42 67 -4 39 -32 39 -36 -1 -2 -16 -12
-38 -22 -47 -11 -10 -16 -25 -13 -41 4 -19 0 -27 -16 -32 -16 -5 -21 -15 -21
-41 0 -19 -4 -34 -10 -34 -23 0 -70 -60 -70 -90 0 -41 -27 -51 -53 -19 l-19
24 -15 -23 c-13 -19 -24 -22 -81 -22 -60 0 -68 3 -98 33 -29 27 -34 39 -34 79
0 36 5 50 20 61 20 14 21 24 21 188 0 96 -1 180 -1 187 0 9 -28 12 -108 12
-96 0 -108 -2 -120 -20 -9 -15 -23 -20 -60 -20 -39 0 -52 5 -75 29 -15 16 -27
39 -27 50 0 12 -11 31 -25 43 -32 28 -33 68 -1 96 21 17 24 27 19 56 -5 33 -1
39 70 110 51 52 82 76 99 76 13 0 29 9 36 20 10 17 23 20 81 20 l69 0 4 42 c3
34 -1 45 -21 64 -20 18 -23 29 -18 59 5 30 2 40 -19 58 -22 19 -25 28 -23 85
2 55 -1 65 -20 78 -17 12 -22 25 -21 53 3 61 3 61 -47 61 -44 0 -49 3 -109 65
-35 36 -68 65 -73 65 -6 0 -11 15 -11 33 0 22 -7 36 -21 45 -18 11 -21 20 -16
54 4 33 1 43 -19 61 -22 19 -25 29 -23 85 2 55 -1 65 -20 78 -19 14 -22 24
-20 77 3 55 0 65 -23 90 l-27 28 -45 -43 c-25 -23 -46 -45 -46 -49 0 -4 9 -9
21 -12 15 -4 20 -12 17 -29 -4 -31 -44 -37 -53 -8 -10 32 -30 18 -27 -19 1
-22 -3 -33 -15 -38 -10 -4 -55 -44 -100 -90 -67 -67 -83 -89 -83 -113 0 -17
-4 -30 -10 -30 -5 0 -32 -22 -60 -50 -38 -38 -50 -57 -50 -80 0 -16 -4 -30
-10 -30 -23 0 -70 -60 -70 -90 0 -16 -4 -30 -10 -30 -5 0 -50 -40 -100 -90
-73 -73 -90 -95 -90 -120 0 -16 -4 -30 -10 -30 -23 0 -70 -60 -70 -90 0 -16
-5 -30 -10 -30 -6 0 -93 -83 -195 -185 -133 -135 -190 -185 -207 -185 -13 0
-29 -9 -36 -20 -7 -12 -23 -20 -40 -20 -16 0 -32 -8 -40 -20 -11 -18 -23 -20
-102 -20 -79 0 -91 2 -102 20 -8 12 -24 20 -40 20 -17 0 -33 8 -40 20 -8 12
-24 20 -40 20 -17 0 -33 8 -40 20 -11 18 -24 20 -100 20 -77 0 -89 2 -100 20
-10 15 -24 20 -60 20 -37 0 -51 5 -60 20 -8 12 -24 20 -40 20 -17 0 -33 8 -40
20 -8 12 -24 20 -40 20 -15 0 -33 8 -40 19 -8 11 -28 21 -48 23 -32 3 -35 6
-38 37 -3 24 -15 45 -43 71 -39 36 -40 39 -38 97 2 52 -1 62 -25 86 -15 15
-38 27 -51 27 -14 0 -30 9 -37 20 -8 12 -24 20 -40 20 -15 0 -33 8 -40 19 -7
10 -28 22 -46 26 -18 4 -36 13 -39 21 -3 8 -17 14 -31 14 -18 0 -42 17 -83 59
-44 46 -65 60 -91 63 -33 3 -33 3 -33 56 -1 43 -5 55 -24 68 -20 14 -22 23
-18 56 4 33 1 43 -19 61 -21 18 -24 29 -24 87 0 57 3 69 23 86 19 17 22 28 19
62 -4 38 -7 42 -31 42 -19 0 -38 12 -64 40 -21 23 -46 40 -58 40 -14 0 -51 30
-105 85 -46 47 -88 85 -93 85 -6 0 -11 15 -11 34 0 33 -2 35 -37 38 l-38 3 -2
93 c-1 83 -3 95 -22 108 -30 21 -30 108 -1 126 13 9 20 24 20 45 0 23 6 33 19
38 14 4 21 17 23 43 l3 37 134 3 c121 2 136 5 148 22 13 18 26 20 141 20 116
0 128 2 140 20 11 18 23 20 100 20 76 0 89 2 100 20 11 18 23 20 100 20 76 0
89 2 100 20 10 17 23 20 80 20 56 0 69 3 80 20 9 15 23 20 60 20 36 0 50 5 60
20 10 17 23 20 80 20 56 0 69 3 80 20 9 15 23 20 60 20 36 0 50 5 60 20 9 15
23 20 60 20 36 0 50 5 60 20 9 15 23 20 60 20 36 0 50 5 60 20 7 12 23 20 40
20 16 0 32 8 40 20 9 15 23 20 60 20 36 0 50 5 60 20 7 12 23 20 40 20 16 0
32 8 40 20 7 11 23 20 37 20 17 0 38 14 62 40 25 27 46 40 63 40 14 0 30 8 38
20 8 13 23 20 42 20 28 0 30 3 30 35 0 46 25 58 52 25 l19 -23 36 41 c23 27
45 42 60 42 15 0 43 20 81 60 36 37 67 60 80 60 14 0 70 49 166 144 121 121
145 150 148 178 3 29 7 33 36 36 28 3 82 39 82 54 0 3 -9 8 -21 11 -15 4 -20
12 -17 29 2 18 10 24 36 26 23 2 46 17 82 54 28 28 50 52 50 54 0 1 -3 9 -6
18 -5 13 -23 16 -95 16 -78 0 -90 2 -101 20 -11 17 -24 20 -80 20 -57 0 -70 3
-80 20 -8 12 -24 20 -40 20 -17 0 -33 8 -40 20 -10 15 -24 20 -60 20 -37 0
-51 5 -60 20 -8 12 -24 20 -40 20 -17 0 -33 8 -40 20 -8 12 -24 20 -38 20 -19
0 -41 16 -80 60 -30 33 -57 60 -61 60 -4 0 -11 -9 -14 -21 -9 -28 -49 -22 -53
9 -3 17 2 25 18 29 39 10 14 28 -41 28 -54 0 -54 0 -57 33 -3 25 -17 47 -53
83 -27 27 -54 49 -59 49 -6 0 -10 14 -10 30 0 30 -47 90 -70 90 -6 0 -10 15
-10 34 0 26 -5 36 -20 41 -14 5 -20 15 -20 38 0 22 -7 36 -21 45 -18 11 -20
20 -16 52 4 33 1 44 -24 70 -24 25 -37 30 -74 30 -34 0 -48 5 -57 20 -10 15
-24 20 -60 20 -37 0 -51 5 -60 20 -8 12 -24 20 -40 20 -17 0 -33 8 -40 20 -8
12 -24 20 -38 20 -17 0 -38 13 -63 40 -24 26 -45 40 -62 40 -14 0 -30 9 -37
20 -7 11 -23 20 -36 20 -17 0 -74 50 -207 185 -102 102 -189 185 -195 185 -5
0 -10 14 -10 30 0 30 -47 90 -70 90 -6 0 -10 15 -10 34 0 33 -2 35 -37 38 -30
2 -39 8 -41 25 -2 14 3 23 17 28 27 8 27 21 0 35 -15 9 -20 20 -19 48 3 59 2
61 -37 64 -30 2 -39 8 -41 25 -2 14 3 23 17 28 26 8 26 17 1 33 -26 16 -26 42
0 49 21 6 22 8 22 59 1 36 -42 84 -73 84 -13 0 -80 59 -184 165 -91 91 -169
165 -175 165 -5 0 -10 14 -10 31 0 24 -12 42 -61 89 -57 56 -61 62 -56 95 6
34 -10 65 -34 65 -5 0 -9 15 -9 33 0 22 -7 36 -21 45 -17 11 -20 22 -18 78 2
57 -1 67 -20 80 -21 15 -22 21 -21 192 0 98 1 182 0 189 0 6 -9 15 -20 18 -14
4 -20 15 -20 36 0 22 -13 42 -50 79 -28 28 -55 50 -60 50 -6 0 -10 14 -10 30
0 30 -47 90 -70 90 -6 0 -10 15 -10 33 0 22 -7 36 -21 45 -18 11 -21 20 -16
53 4 34 1 44 -20 64 -22 19 -25 29 -20 60 5 30 2 40 -19 57 l-24 22 0 247 c0
243 0 248 22 263 18 13 21 24 19 80 -2 56 1 66 20 80 32 22 31 91 -1 113 -19
13 -21 22 -17 55 4 33 1 43 -20 63 -22 19 -25 29 -20 60 5 30 2 40 -19 58 -24
21 -25 25 -23 145 1 115 0 125 -20 138 -28 20 -28 68 0 87 20 14 21 23 20 181
-2 156 -1 166 19 178 13 9 20 23 20 45 0 18 4 33 9 33 24 0 39 31 34 69 -5 33
-2 42 16 53 14 9 21 23 21 45 0 23 6 33 20 38 15 5 20 15 20 41 0 19 5 34 10
34 6 0 30 20 53 45 l43 45 86 0 c74 0 89 -3 100 -19 8 -11 28 -21 48 -23 32
-3 35 -6 38 -36 3 -25 17 -47 53 -83 27 -27 54 -49 59 -49 6 0 10 -14 10 -30
0 -26 22 -53 145 -174 119 -120 150 -145 177 -148 30 -3 33 -6 36 -40 3 -35 5
-37 40 -40 34 -3 37 -6 40 -36 5 -47 117 -159 164 -164 30 -3 33 -6 36 -40 3
-33 6 -38 29 -38 19 0 43 -17 85 -60 36 -37 66 -60 80 -60 13 0 43 -23 80 -60
38 -39 66 -60 81 -60 14 0 37 -16 60 -40 22 -25 45 -40 60 -40 14 0 37 -15 60
-40 24 -26 45 -40 62 -40 14 0 30 -9 37 -20 8 -12 24 -20 38 -20 17 0 38 -13
63 -40 24 -26 45 -40 62 -40 14 0 30 -9 37 -20 8 -12 24 -20 40 -20 17 0 33
-8 40 -20 8 -12 24 -20 38 -20 17 0 38 -13 63 -40 24 -26 45 -40 62 -40 14 0
30 -9 37 -20 8 -12 24 -20 40 -20 17 0 33 -8 40 -20 10 -15 24 -20 60 -20 37
0 51 -5 60 -20 8 -12 24 -20 40 -20 17 0 33 -8 40 -20 8 -12 24 -20 40 -20 17
0 33 -8 40 -20 8 -12 24 -20 40 -20 17 0 33 -8 40 -20 10 -15 24 -20 60 -20
37 0 51 -5 60 -20 8 -12 24 -20 40 -20 17 0 33 -8 40 -20 10 -15 24 -20 60
-20 37 0 51 -5 60 -20 8 -12 24 -20 39 -20 16 0 32 -9 41 -22 21 -31 38 -15
33 34 -3 26 -11 45 -25 55 -18 13 -21 24 -19 79 2 56 -1 67 -19 80 -21 15 -22
21 -22 244 0 222 1 229 21 244 20 13 22 23 20 98 -2 78 0 85 23 105 21 18 24
28 19 58 -5 33 -2 39 56 95 l63 60 0 101 c0 91 -2 102 -21 116 -18 12 -21 25
-21 83 0 59 3 71 21 84 20 13 21 23 20 119 -2 98 0 106 20 121 19 13 22 23 20
78 -2 56 1 66 23 85 20 18 23 28 19 61 -5 34 -2 43 16 54 14 9 21 23 21 45 0
23 6 33 20 38 15 5 20 15 20 40 0 25 5 35 20 40 15 5 20 15 20 41 0 19 5 34
11 34 5 0 47 38 93 85 l83 85 67 0 c46 0 66 4 67 13 0 6 0 55 -1 107 -1 90 0
97 24 117 21 18 24 28 19 58 -5 31 -2 41 20 60 21 20 24 30 20 64 -5 33 -2 42
16 53 14 9 21 23 21 45 0 23 6 33 20 38 15 5 20 15 20 40 0 25 5 35 20 40 15
5 20 15 20 40 0 25 5 35 20 40 15 5 20 15 20 41 0 19 4 34 9 34 10 0 151 132
151 142 0 3 -9 8 -21 11 -15 4 -20 12 -17 29 4 31 44 37 53 9 3 -12 9 -21 13
-21 4 0 41 36 82 80 72 77 77 80 120 80 34 0 48 5 58 20 9 15 23 20 58 20 43
0 51 -4 101 -54 l54 -55 -1 -242 c-1 -235 -1 -242 20 -256 19 -14 21 -23 19
-140 -1 -117 0 -126 20 -140 21 -14 22 -22 20 -140 -1 -118 0 -125 21 -140 19
-13 21 -22 17 -55 -4 -33 -1 -43 20 -63 22 -19 25 -29 20 -60 -5 -30 -2 -40
19 -58 22 -19 25 -28 23 -85 -2 -55 1 -65 21 -79 19 -13 21 -22 17 -55 -4 -33
-1 -43 20 -63 22 -19 25 -29 20 -59 -6 -35 10 -66 34 -66 5 0 9 -15 9 -33 0
-22 7 -36 21 -45 18 -11 21 -20 16 -53 -5 -38 10 -69 34 -69 5 0 9 -15 9 -34
0 -26 5 -36 20 -41 14 -5 20 -15 20 -38 0 -22 7 -36 21 -45 18 -11 21 -20 16
-53 -5 -38 10 -69 34 -69 5 0 9 -15 9 -34 0 -26 5 -36 20 -41 14 -4 20 -15 20
-36 0 -23 11 -40 41 -69 38 -35 41 -42 36 -74 -5 -31 -1 -40 28 -71 19 -19 39
-35 45 -35 5 0 10 -15 10 -34 0 -26 5 -36 20 -41 15 -5 20 -15 20 -40 0 -25 5
-35 20 -40 15 -5 20 -15 20 -40 0 -25 5 -35 20 -40 14 -4 20 -15 20 -36 0 -29
48 -89 70 -89 6 0 10 -15 10 -34 0 -26 5 -36 20 -41 15 -5 20 -15 20 -40 0
-25 5 -35 20 -40 15 -5 20 -15 20 -40 0 -25 5 -35 20 -40 14 -5 20 -15 20 -38
0 -22 7 -36 21 -45 18 -11 21 -20 16 -53 -5 -38 10 -69 34 -69 5 0 9 -15 9
-33 0 -22 7 -36 21 -45 18 -11 21 -20 16 -53 -4 -34 -1 -44 20 -64 22 -19 25
-29 20 -59 -5 -30 -2 -40 20 -60 22 -20 25 -30 20 -60 -5 -30 -2 -40 20 -60
22 -20 25 -30 20 -61 -5 -30 -2 -40 19 -58 22 -19 25 -28 23 -85 -2 -55 1 -65
20 -78 21 -15 22 -22 20 -141 -1 -118 0 -125 21 -140 21 -15 22 -21 19 -142
-3 -107 -2 -126 11 -126 9 0 16 11 18 30 2 18 17 43 38 62 24 23 34 42 34 63
0 16 4 30 10 30 23 0 70 60 70 90 0 16 4 30 10 30 22 0 70 60 70 89 0 21 6 32
20 36 15 5 20 15 20 40 0 25 5 35 20 40 15 5 20 15 20 41 0 19 4 34 10 34 23
0 70 60 70 90 0 16 4 30 10 30 23 0 70 60 70 90 0 16 4 30 10 30 22 0 70 60
70 89 0 21 6 32 19 36 14 4 21 17 23 43 3 35 5 37 41 40 35 3 37 5 37 38 0 19
5 34 10 34 6 0 66 56 134 125 81 82 131 125 145 125 13 0 44 24 79 60 40 41
66 60 83 60 13 0 30 9 37 20 7 12 23 20 40 20 16 0 32 8 40 20 9 15 23 20 60
20 36 0 50 5 60 20 10 17 23 20 80 20 56 0 69 3 80 20 11 18 23 20 142 20 119
0 131 -2 142 -20 12 -18 24 -20 120 -20 97 0 109 -2 120 -20 10 -15 24 -20 58
-20 41 0 50 -5 83 -40 21 -23 46 -40 58 -40 14 0 44 -22 80 -59 44 -46 65 -60
91 -63 29 -3 33 -7 36 -37 3 -27 22 -51 104 -132 96 -95 100 -101 95 -134 -6
-34 11 -65 34 -65 5 0 9 -13 9 -30 0 -21 12 -42 45 -75 l45 -47 30 30 c34 34
38 60 13 69 -10 4 -21 11 -25 17 -4 6 -8 77 -8 157 0 142 1 146 24 167 21 17
24 27 19 57 -5 31 -2 41 20 61 22 20 25 30 20 60 -5 30 -2 40 20 59 21 20 24
30 20 64 -5 33 -2 42 16 53 14 9 21 23 21 45 0 18 4 33 10 33 23 0 70 60 70
90 0 16 5 30 10 30 6 0 76 66 156 146 l145 146 34 -33 c35 -34 35 -34 34 -117
-2 -75 0 -85 20 -98 19 -14 21 -24 21 -124 0 -100 -2 -110 -21 -124 -20 -13
-22 -23 -20 -98 2 -78 0 -85 -24 -106 -19 -17 -24 -28 -19 -47 8 -33 -3 -75
-20 -75 -17 0 -27 -25 -20 -45 14 -35 54 -15 133 65 55 56 86 80 102 80 13 0
30 9 37 20 7 12 23 20 40 20 16 0 32 8 40 20 9 15 23 20 60 20 36 0 50 5 60
20 11 17 23 20 98 20 77 0 88 2 104 22 l18 23 36 -35 c43 -42 47 -77 11 -108
-32 -28 -32 -50 1 -62 39 -15 30 -54 -14 -58 -42 -4 -82 -44 -82 -82 0 -17 -4
-30 -10 -30 -23 0 -70 -60 -70 -90 0 -16 -5 -30 -10 -30 -6 0 -20 -11 -32 -25
-12 -14 -32 -25 -45 -25 -15 0 -43 -20 -81 -60 -40 -41 -66 -60 -83 -60 -13 0
-30 -9 -37 -20 -9 -15 -23 -20 -57 -20 -40 0 -50 -5 -86 -42 l-40 -43 -21 25
-20 25 -15 -22 c-13 -19 -25 -23 -64 -23 -27 0 -49 -2 -49 -4 0 -2 -2 -11 -5
-18 -3 -8 8 -29 25 -46 25 -26 38 -32 74 -32 34 0 47 -5 59 -22 l15 -23 19 24
c28 34 57 22 51 -20 -6 -39 8 -47 31 -18 26 32 51 19 51 -26 0 -32 2 -35 30
-35 19 0 34 -7 42 -20 7 -11 24 -20 37 -20 32 0 131 -99 131 -132 0 -38 -19
-48 -90 -48 -54 0 -67 -3 -78 -20 -11 -19 -23 -20 -202 -20 -179 0 -191 1
-202 20 -11 17 -24 20 -98 20 l-86 0 -37 40 -36 40 -83 0 c-72 0 -85 -3 -96
-20 -9 -15 -23 -20 -60 -20 -36 0 -50 -5 -60 -20 -7 -12 -23 -20 -40 -20 -16
0 -32 -8 -40 -20 -7 -11 -23 -20 -37 -20 -33 0 -73 -43 -77 -82 -3 -30 -6 -33
-37 -33 -39 0 -53 -20 -21 -28 16 -4 21 -12 18 -29 -4 -31 -44 -37 -53 -9 -3
12 -10 21 -14 21 -17 0 -51 -52 -51 -79 0 -21 -6 -32 -20 -36 -14 -4 -20 -15
-20 -34 0 -18 -8 -34 -22 -44 l-23 -16 23 -16 c26 -19 29 -43 5 -52 -10 -4
-29 -18 -42 -32 -21 -22 -23 -33 -22 -107 2 -73 0 -84 -19 -97 -20 -14 -21
-18 -20 -640 0 -626 0 -626 -21 -640 -20 -14 -21 -23 -20 -160 2 -139 1 -146
-20 -161 -20 -13 -22 -23 -20 -99 2 -78 0 -87 -20 -101 -19 -13 -22 -23 -20
-78 2 -56 -1 -66 -23 -85 -20 -18 -23 -28 -19 -61 4 -33 2 -42 -17 -55 -20
-14 -23 -24 -21 -79 2 -56 -1 -66 -23 -85 -20 -18 -23 -28 -19 -61 5 -34 2
-43 -16 -54 -14 -9 -21 -23 -21 -45 0 -18 -4 -33 -9 -33 -24 0 -39 -31 -34
-69 5 -33 2 -42 -16 -53 -14 -9 -21 -23 -21 -45 0 -23 -6 -33 -20 -38 -15 -5
-20 -15 -20 -40 0 -25 -5 -35 -20 -40 -15 -5 -20 -15 -20 -40 0 -25 -5 -35
-20 -40 -15 -5 -20 -15 -20 -41 0 -19 -4 -34 -10 -34 -22 0 -70 -60 -70 -89 0
-21 -6 -32 -20 -36 -15 -5 -20 -15 -20 -41 0 -19 -4 -34 -10 -34 -23 0 -70
-60 -70 -90 0 -16 -4 -30 -10 -30 -5 0 -41 -31 -80 -70 -56 -56 -70 -76 -70
-100 0 -16 -5 -30 -10 -30 -6 0 -75 -65 -154 -145 -95 -95 -151 -145 -165
-145 -13 0 -51 -30 -100 -80 -50 -51 -86 -80 -100 -80 -13 0 -44 -23 -79 -60
-37 -38 -67 -60 -81 -60 -12 0 -37 -17 -58 -40 -25 -27 -46 -40 -63 -40 -14 0
-30 -8 -38 -20 -7 -11 -23 -20 -37 -20 -17 0 -38 -14 -62 -40 -25 -27 -46 -40
-63 -40 -14 0 -30 -8 -38 -20 -7 -12 -23 -20 -40 -20 -16 0 -32 -8 -40 -20 -7
-12 -23 -20 -40 -20 -16 0 -32 -8 -40 -20 -8 -13 -23 -20 -42 -20 -28 0 -30
-3 -30 -35 0 -45 -25 -58 -51 -26 l-19 23 -46 -48 -46 -47 1 -103 c2 -94 0
-103 -19 -117 -21 -14 -21 -21 -20 -280 1 -260 0 -266 -21 -280 -18 -13 -21
-25 -21 -96 0 -76 1 -81 31 -110 18 -17 36 -31 41 -31 6 0 10 -13 10 -30 0
-21 12 -41 43 -73 23 -24 50 -46 60 -50 12 -5 16 -15 15 -38 -3 -37 17 -51 27
-19 9 29 49 23 53 -8 3 -17 -2 -25 -17 -29 -12 -3 -21 -8 -21 -11 0 -4 30 -34
66 -69 47 -45 74 -63 97 -65 29 -3 32 -6 35 -40 l3 -38 146 0 c138 0 146 1
164 23 l19 22 19 -22 c18 -21 28 -23 123 -23 l104 0 37 -40 c20 -23 46 -40 58
-40 13 0 55 -35 116 -96 91 -91 95 -97 90 -130 -5 -29 -2 -39 19 -57 23 -20
25 -28 24 -97 -1 -41 -1 -81 -1 -87 1 -9 18 -13 49 -13 43 0 52 -4 85 -40 32
-35 42 -40 82 -40 34 0 48 -5 57 -20 8 -12 24 -20 40 -20 17 0 33 -8 40 -20 8
-12 24 -20 40 -20 17 0 33 -8 40 -20 10 -15 24 -20 60 -20 37 0 51 -5 60 -20
8 -12 24 -20 40 -20 17 0 33 -8 40 -20 10 -15 24 -20 60 -20 37 0 51 -5 60
-20 8 -12 24 -20 40 -20 17 0 33 -8 40 -20 8 -12 24 -20 40 -20 17 0 33 -8 40
-20 8 -12 24 -20 40 -20 17 0 33 -8 40 -20 8 -12 24 -20 40 -20 17 0 33 -8 40
-20 10 -15 24 -20 60 -20 37 0 51 -5 60 -20 8 -12 24 -20 40 -20 17 0 33 -8
40 -20 10 -15 24 -20 60 -20 37 0 51 -5 60 -20 8 -12 24 -20 40 -20 17 0 33
-8 40 -20 8 -12 24 -20 40 -20 17 0 33 -8 40 -20 8 -12 24 -20 40 -20 17 0 33
-8 40 -20 10 -15 24 -20 60 -20 37 0 51 -5 60 -20 8 -12 24 -20 40 -20 17 0
33 -8 40 -20 8 -12 24 -20 40 -20 17 0 33 -8 40 -20 10 -15 24 -20 60 -20 37
0 51 -5 60 -20 8 -12 24 -20 40 -20 17 0 33 -8 40 -20 8 -12 24 -20 39 -20 16
0 32 -9 42 -23 l15 -22 26 24 c31 29 32 37 6 44 -25 6 -27 45 -2 54 9 4 23 15
30 25 7 10 24 18 37 18 17 0 50 26 110 85 68 68 85 90 85 114 0 21 6 32 20 36
15 5 20 15 20 40 0 25 5 35 20 40 11 3 20 12 21 18 5 86 0 119 -20 133 -21 15
-21 19 -21 444 0 427 0 429 21 444 20 13 22 23 20 99 -2 78 0 87 20 101 19 13
22 23 20 78 -2 57 1 66 23 85 21 18 24 28 19 58 -5 31 -2 41 20 60 21 20 24
30 20 64 -5 33 -2 42 16 53 14 9 21 23 21 45 0 23 6 33 20 38 15 5 20 15 20
41 0 19 4 34 9 34 11 0 71 52 71 61 0 4 -9 9 -21 12 -15 4 -20 12 -17 29 2 19
10 24 41 26 35 3 37 5 37 37 0 25 5 35 20 40 21 7 22 7 24 75 l1 45 38 -1 c41
-1 49 14 17 34 -25 15 -26 40 -2 49 31 12 62 53 62 84 0 16 4 29 10 29 23 0
70 60 70 90 0 16 5 30 10 30 6 0 20 11 32 25 24 28 69 33 87 11 8 -9 11 -39 9
-75 -2 -54 0 -63 20 -77 22 -15 23 -22 21 -121 -1 -97 0 -106 20 -120 21 -14
22 -22 20 -140 -1 -116 0 -126 20 -139 20 -14 21 -24 21 -184 0 -160 -1 -170
-21 -184 -20 -13 -21 -23 -20 -139 2 -118 1 -126 -20 -141 -20 -13 -22 -23
-20 -98 2 -77 0 -85 -23 -105 -20 -18 -23 -28 -19 -61 5 -34 2 -43 -16 -54
-14 -9 -21 -23 -21 -45 0 -18 -4 -33 -9 -33 -25 0 -39 -30 -33 -75 4 -41 2
-47 -17 -52 -14 -4 -21 -13 -21 -31 0 -18 -19 -44 -65 -90 -63 -61 -76 -84
-56 -97 6 -3 57 42 115 101 85 86 106 112 106 135 0 16 4 29 10 29 9 0 150
134 150 143 0 2 -9 7 -21 10 -15 4 -20 12 -17 29 2 18 10 24 36 26 46 5 122
81 122 122 0 16 4 30 10 30 5 0 32 22 60 50 37 37 50 57 50 79 0 21 6 32 20
36 21 7 22 7 24 75 1 43 2 45 34 48 18 2 44 14 58 29 23 23 26 34 25 97 0 39
0 76 0 83 -1 6 -10 15 -21 18 -14 5 -20 15 -20 38 0 22 -7 36 -21 45 -18 11
-21 20 -16 53 5 38 -10 69 -34 69 -5 0 -9 15 -9 33 0 22 -7 36 -21 45 -18 11
-21 20 -16 53 4 34 1 44 -20 64 -22 19 -25 29 -20 60 5 30 2 40 -19 58 -22 19
-25 28 -23 85 2 54 -1 65 -19 78 -22 15 -22 17 -22 384 0 365 0 369 21 384 20
13 21 23 20 119 -2 98 0 106 20 121 19 13 22 23 20 78 -2 56 1 66 23 85 20 18
23 28 19 61 -4 33 -2 42 17 55 21 14 23 24 21 81 -2 56 1 66 20 80 19 13 22
23 20 78 -2 57 1 66 23 85 21 18 24 28 19 58 -5 31 -2 41 20 60 21 20 24 30
20 63 -4 32 -1 42 15 54 12 8 22 28 24 48 2 27 8 36 25 38 14 2 23 -3 27 -16
4 -11 16 -22 26 -25 15 -4 20 -14 20 -40 0 -27 5 -37 20 -42 14 -5 20 -15 20
-38 0 -22 7 -36 21 -45 18 -11 21 -20 16 -53 -4 -34 -1 -44 20 -64 22 -19 25
-29 20 -59 -6 -35 10 -66 34 -66 5 0 9 -15 9 -33 0 -22 7 -36 21 -45 18 -11
21 -20 16 -53 -4 -34 -1 -44 20 -64 22 -19 25 -29 20 -59 -5 -30 -2 -40 20
-60 22 -20 25 -30 20 -61 -5 -30 -2 -40 19 -58 24 -21 25 -25 23 -145 -1 -115
0 -125 20 -138 20 -15 21 -23 21 -244 0 -222 -1 -229 -21 -244 -20 -13 -21
-23 -20 -119 2 -98 0 -106 -20 -121 -20 -13 -22 -23 -20 -86 2 -64 0 -72 -18
-77 -43 -11 -35 -63 10 -63 27 0 29 3 29 36 0 27 5 37 20 41 16 4 20 14 20 51
0 41 5 50 40 83 30 28 40 45 40 68 0 21 6 32 20 36 14 4 20 15 20 35 0 19 7
33 20 40 26 14 25 27 -1 35 -14 5 -19 14 -17 28 2 17 11 23 41 25 35 3 37 5
37 37 0 25 5 35 20 40 15 5 20 15 20 41 0 19 4 34 9 34 24 0 39 31 34 69 -5
33 -2 42 16 53 14 9 21 23 21 45 0 18 4 33 9 33 24 0 40 31 34 66 -5 30 -2 40
20 60 22 20 25 30 20 60 -5 31 -2 40 18 55 l24 19 -24 19 c-20 15 -23 24 -18
55 5 31 1 40 -28 71 -19 19 -39 35 -45 35 -5 0 -10 14 -10 30 0 30 -47 90 -70
90 -6 0 -10 14 -10 30 0 30 -47 90 -70 90 -6 0 -10 14 -10 30 0 30 -47 90 -70
90 -6 0 -10 15 -10 34 0 26 -5 36 -20 41 -14 4 -20 15 -20 36 0 29 -48 89 -70
89 -6 0 -10 15 -10 33 0 22 -7 36 -21 45 -17 11 -20 22 -18 78 2 57 0 67 -21
81 -19 13 -21 22 -17 55 4 33 1 43 -19 61 -24 20 -25 26 -23 125 1 95 0 105
-20 118 -21 15 -21 19 -21 424 0 402 0 409 21 423 19 14 20 25 22 188 2 172 2
174 25 177 12 2 22 -1 22 -6 0 -13 147 -162 160 -162 5 0 10 -14 10 -30 0 -30
47 -90 70 -90 6 0 10 -14 10 -30 0 -30 47 -90 70 -90 6 0 10 -13 10 -29 0 -31
31 -72 63 -84 12 -5 16 -15 15 -38 -3 -37 17 -51 27 -19 9 29 49 23 53 -8 3
-17 -2 -25 -17 -29 -37 -9 -37 -56 0 -66 14 -4 19 -14 19 -36 0 -22 9 -41 30
-61 17 -17 35 -30 40 -30 6 0 10 -15 10 -33 0 -22 7 -36 21 -45 18 -11 21 -20
16 -53 -4 -34 -1 -44 20 -64 22 -19 25 -29 20 -60 -5 -30 -2 -40 19 -58 23
-20 25 -27 23 -105 -2 -76 0 -85 20 -99 22 -15 22 -17 20 -302 -2 -239 0 -286
12 -286 9 0 15 13 17 33 2 18 10 36 18 39 10 4 14 23 14 74 0 58 3 70 21 83
20 13 21 23 20 119 -2 98 0 106 20 120 20 14 21 23 20 120 -2 97 0 106 19 120
21 14 21 22 20 220 -1 199 0 206 21 220 18 13 21 25 21 75 l0 60 -106 105
c-71 71 -116 108 -137 112 -17 4 -33 13 -36 21 -3 8 -16 14 -30 14 -18 0 -69
45 -208 185 -102 102 -189 185 -195 185 -5 0 -10 14 -10 30 0 30 -47 90 -70
90 -6 0 -10 15 -10 34 0 26 -5 36 -20 41 -14 4 -20 15 -20 36 0 29 -48 89 -70
89 -6 0 -10 15 -10 33 0 22 -7 36 -21 45 -17 11 -20 22 -18 78 2 57 -1 67 -20
80 -19 14 -22 24 -20 80 2 57 0 67 -21 81 -19 13 -21 22 -17 55 4 33 1 43 -20
63 -22 19 -25 29 -20 60 5 30 2 40 -19 58 -22 19 -25 28 -23 85 2 55 -1 65
-21 79 -19 13 -21 22 -17 55 4 33 1 43 -19 61 -23 20 -25 28 -23 105 2 75 0
85 -20 98 -16 12 -21 25 -21 63 0 26 5 52 12 59 19 19 66 14 80 -8 10 -15 24
-20 58 -20 41 0 50 -5 83 -40 21 -23 46 -40 58 -40 14 0 50 -29 100 -79 76
-78 79 -80 131 -83 52 -3 53 -4 56 -36 3 -31 36 -82 53 -82 4 0 11 9 14 21 9
28 49 22 53 -9 3 -17 -2 -25 -17 -29 -12 -3 -21 -8 -21 -11 0 -10 141 -142
151 -142 5 0 9 -14 9 -30 0 -23 12 -42 50 -80 28 -28 55 -50 60 -50 6 0 10
-15 10 -34 0 -26 5 -36 20 -41 14 -4 20 -15 20 -36 0 -29 48 -89 70 -89 6 0
10 -15 10 -34 0 -26 5 -36 20 -41 14 -5 20 -15 20 -38 0 -22 7 -36 21 -45 18
-11 21 -20 16 -54 -4 -33 -1 -43 19 -61 22 -19 25 -29 23 -85 -2 -54 1 -65 19
-78 19 -13 22 -25 22 -85 l0 -69 30 0 29 0 3 222 c3 221 3 223 -20 242 -21 19
-23 27 -21 124 1 96 0 105 -20 119 -20 13 -22 23 -20 100 2 77 0 86 -21 100
-18 13 -21 22 -17 54 4 31 0 43 -22 67 -14 16 -34 32 -43 35 -24 9 -23 34 2
49 30 19 26 40 -6 32 -21 -5 -34 3 -84 55 -42 43 -67 61 -85 61 -14 0 -30 9
-37 20 -8 12 -24 20 -40 20 -17 0 -33 8 -40 20 -8 12 -24 20 -40 20 -17 0 -33
8 -40 20 -8 12 -24 20 -38 20 -17 0 -38 13 -63 40 -24 26 -45 40 -62 40 -14 0
-30 9 -37 20 -8 12 -24 20 -38 20 -17 0 -38 13 -63 40 -22 25 -45 40 -60 40
-14 0 -37 15 -59 39 -26 28 -46 41 -70 43 -29 3 -33 7 -36 36 -3 25 -17 47
-53 83 -27 27 -54 49 -59 49 -6 0 -10 14 -10 30 0 23 -12 42 -50 80 -28 28
-55 50 -60 50 -6 0 -10 14 -10 30 0 30 -47 90 -70 90 -6 0 -10 15 -10 34 0 26
-5 36 -20 41 -14 4 -20 15 -20 36 0 29 -48 89 -70 89 -6 0 -10 15 -10 34 0 26
-5 36 -20 41 -14 4 -20 15 -20 36 0 23 -11 40 -41 69 -38 35 -41 42 -36 74 6
35 -10 66 -34 66 -5 0 -9 14 -9 30 0 30 -47 90 -70 90 -6 0 -10 15 -10 34 0
26 -5 36 -20 41 -15 5 -20 15 -20 40 0 25 -5 35 -20 40 -15 5 -20 14 -18 36 2
20 -4 34 -20 45 -24 17 -30 62 -10 82 7 7 34 12 60 12 37 0 51 -5 60 -20 8
-12 24 -20 40 -20 17 0 33 -8 40 -20 10 -15 24 -20 60 -20 37 0 51 -5 60 -20
8 -12 24 -20 40 -20 17 0 33 -8 40 -20 8 -12 24 -20 40 -20 17 0 33 -8 40 -20
8 -12 24 -20 40 -20 17 0 33 -8 40 -20 8 -12 24 -20 40 -20 17 0 33 -8 40 -20
8 -12 24 -20 40 -20 17 0 33 -8 40 -20 17 -27 64 -27 71 1 4 15 12 20 29 17
31 -4 38 -47 9 -55 -27 -7 -26 -14 2 -38 14 -13 42 -22 77 -25 l55 -5 3 -37
c3 -33 6 -38 29 -38 20 0 50 -24 125 -102 79 -81 101 -100 108 -88 5 8 10 19
10 23 0 5 10 7 23 5 30 -4 37 -47 8 -55 -12 -3 -21 -9 -21 -12 0 -11 42 -47
63 -54 12 -5 16 -15 15 -38 -3 -37 17 -51 27 -19 9 29 49 23 53 -8 3 -17 -2
-25 -17 -29 -26 -7 -27 -19 -1 -33 13 -7 20 -21 20 -39 0 -21 6 -30 21 -34 18
-5 21 -11 16 -36 -9 -42 10 -49 42 -17 l26 27 -23 17 c-20 16 -23 26 -21 80 2
55 0 65 -20 79 -20 13 -22 22 -18 55 5 37 -10 68 -34 68 -5 0 -9 15 -9 33 0
22 -7 36 -21 45 -18 11 -21 20 -16 53 5 38 -10 69 -34 69 -5 0 -9 15 -9 33 0
22 -7 36 -21 45 -18 11 -21 20 -16 53 4 35 1 43 -29 74 -18 19 -38 35 -44 35
-5 0 -10 15 -10 34 0 26 -5 36 -20 41 -15 5 -20 15 -20 40 0 25 -5 35 -20 40
-15 5 -20 15 -20 41 l0 34 -70 0 c-59 0 -72 3 -82 20 -12 18 -24 20 -140 20
-117 0 -129 2 -140 20 -8 12 -24 20 -40 20 -17 0 -33 8 -40 20 -10 15 -24 20
-60 20 -37 0 -51 5 -60 20 -10 15 -24 20 -60 20 -37 0 -51 5 -60 20 -10 15
-24 20 -58 20 -41 0 -50 5 -83 40 -24 26 -45 40 -62 40 -14 0 -30 9 -37 20 -7
11 -24 20 -37 20 -16 0 -47 24 -102 80 -48 49 -87 80 -99 80 -14 0 -97 76
-245 225 -124 124 -229 225 -235 225 -5 0 -10 14 -10 30 0 43 -115 157 -162
162 -32 3 -33 5 -35 48 -1 25 -2 50 -2 57 -1 6 -18 13 -38 15 l-38 3 0 51 c-1
48 -4 55 -43 91 -43 40 -54 77 -30 101 7 7 40 12 80 12 57 0 70 -3 80 -20 11
-18 24 -20 100 -20 77 0 89 -2 100 -20 10 -15 24 -20 60 -20 37 0 51 -5 60
-20 11 -17 24 -20 80 -20 57 0 70 -3 80 -20 11 -17 24 -20 80 -20 57 0 70 -3
80 -20 8 -12 24 -20 40 -20 17 0 33 -8 40 -20 10 -15 24 -20 58 -20 41 0 50
-5 83 -40 24 -26 45 -40 62 -40 14 0 30 -9 37 -20 8 -12 24 -20 39 -20 16 0
32 -9 42 -22 l15 -23 19 24 c26 32 53 22 53 -18 0 -36 41 -81 73 -81 14 0 55
-34 119 -100 91 -93 118 -110 118 -75 0 7 -39 52 -86 99 -82 81 -86 87 -81
120 5 29 1 40 -24 65 -20 21 -39 31 -59 31 -41 0 -51 27 -20 52 30 24 20 33
-43 33 -51 0 -52 0 -55 33 -4 38 -44 82 -75 82 -14 0 -38 16 -60 40 -22 25
-45 40 -60 40 -14 0 -37 15 -59 39 -32 36 -42 40 -90 43 l-53 3 -3 38 c-3 34
-6 37 -33 37 -18 0 -33 7 -41 20 -8 12 -24 20 -38 20 -17 0 -38 13 -63 40 -21
23 -46 40 -58 40 -14 0 -44 22 -81 60 -34 36 -66 60 -79 60 -13 0 -77 56 -184
165 -91 91 -169 165 -175 165 -5 0 -10 14 -10 30 0 25 -19 49 -110 140 -61 61
-115 110 -120 110 -6 0 -10 14 -10 30 0 30 -47 90 -70 90 -6 0 -10 14 -10 30
0 30 -47 90 -70 90 -6 0 -10 14 -10 30 0 30 -47 90 -70 90 -6 0 -10 14 -10 30
0 23 -12 42 -50 80 -28 28 -55 50 -60 50 -6 0 -10 15 -10 34 0 26 -5 36 -20
41 -15 5 -20 15 -20 40 0 25 -5 35 -20 40 -15 5 -20 15 -20 40 0 25 -5 35 -20
40 -15 5 -20 15 -20 40 0 25 -5 35 -20 40 -14 5 -20 15 -20 38 0 21 -7 36 -20
45 -17 10 -20 23 -20 85 0 41 3 77 7 80 13 14 42 6 48 -13z m-9480 -2570 c0
-18 -6 -26 -23 -28 -13 -2 -25 3 -28 12 -10 26 4 48 28 44 17 -2 23 -10 23
-28z m-1397 -1197 c3 -22 -28 -40 -48 -28 -12 7 -13 38 -3 49 15 14 48 1 51
-21z m-720 -1640 c-3 -32 -44 -46 -54 -19 -10 26 4 46 31 46 23 0 26 -4 23
-27z m14837 -1683 c0 -18 -6 -26 -23 -28 -24 -4 -38 18 -28 44 3 9 15 14 28
12 17 -2 23 -10 23 -28z m-11287 -4139 c21 -13 10 -46 -16 -49 -24 -4 -38 18
-28 43 6 17 24 19 44 6z m7045 -171 c11 -15 27 -20 88 -22 71 -3 74 -4 76 -28
0 -14 1 -30 2 -36 1 -7 10 -14 21 -17 25 -6 27 -45 3 -54 -26 -10 -32 -23 -26
-61 5 -27 1 -38 -20 -57 -21 -20 -24 -30 -20 -64 5 -33 2 -42 -16 -53 -14 -9
-21 -23 -21 -45 0 -18 -5 -33 -10 -33 -6 0 -20 -11 -32 -25 -29 -33 -111 -36
-130 -5 -8 12 -24 20 -40 20 -17 0 -33 8 -40 20 -10 15 -24 20 -58 20 -38 0
-50 6 -77 34 -32 32 -33 36 -33 118 0 77 2 86 24 105 20 18 23 28 19 61 -5 34
-2 43 16 54 14 8 21 23 21 44 0 17 3 34 7 37 3 4 57 7 119 7 101 0 114 -2 127
-20z m-2340 -740 c22 -25 45 -40 60 -40 14 0 37 -15 59 -39 26 -28 46 -41 70
-43 25 -2 34 -8 36 -25 2 -14 -3 -23 -17 -28 -26 -8 -27 -21 -1 -35 16 -8 20
-21 20 -60 0 -39 -4 -53 -20 -62 -13 -9 -20 -24 -20 -45 0 -18 -5 -33 -11 -33
-5 0 -47 -38 -93 -85 -80 -82 -85 -85 -128 -85 -35 0 -49 5 -66 25 -12 14 -26
25 -32 25 -5 0 -10 16 -10 35 0 32 -2 35 -30 35 -19 0 -33 7 -40 20 -14 26
-27 25 -35 -1 -9 -28 -49 -22 -53 9 -3 17 2 25 17 29 26 7 27 19 1 33 -17 9
-20 21 -20 76 l0 66 100 98 c81 80 100 105 100 128 0 36 6 42 45 42 23 0 40
-10 68 -40z m5542 -310 c0 -18 -6 -26 -23 -28 -13 -2 -25 3 -28 12 -10 26 4
48 28 44 17 -2 23 -10 23 -28z m-10880 -280 c0 -18 -6 -26 -23 -28 -13 -2 -25
3 -28 12 -10 26 4 48 28 44 17 -2 23 -10 23 -28z m5083 -115 c12 -14 26 -25
32 -25 5 0 10 -14 10 -31 0 -23 10 -40 40 -68 38 -36 40 -40 40 -99 l0 -63
-94 -94 c-64 -65 -102 -95 -117 -95 -14 0 -39 17 -66 45 -23 25 -47 45 -53 45
-5 0 -10 14 -10 31 0 23 -10 40 -40 68 -45 42 -53 83 -20 103 13 9 20 24 20
45 0 18 5 33 10 33 6 0 30 20 53 45 28 30 51 45 68 45 13 0 30 9 37 20 17 29
63 26 90 -5z m-680 -375 c2 -20 12 -40 23 -48 16 -11 19 -25 19 -82 0 -59 -3
-72 -20 -82 -13 -9 -20 -24 -20 -45 0 -18 -5 -33 -10 -33 -6 0 -20 -11 -32
-25 -17 -20 -31 -25 -69 -25 -39 0 -49 -4 -54 -21 -5 -14 -14 -19 -28 -17 -17
2 -23 11 -25 40 -3 35 -5 37 -40 40 l-37 3 -3 77 c-3 69 -1 79 18 90 13 9 20
23 20 45 0 21 6 33 18 37 9 3 32 24 51 46 l34 41 76 -3 76 -3 3 -35z m154
-500 c11 -17 24 -20 76 -20 54 0 67 4 83 23 l19 22 19 -22 c14 -17 30 -23 63
-23 36 0 49 -6 76 -35 26 -26 33 -41 32 -67 -3 -57 -3 -57 58 -60 51 -3 57 -5
60 -26 3 -17 -2 -25 -17 -29 -12 -3 -21 -8 -21 -12 0 -3 27 -31 60 -61 l60
-55 0 -83 0 -83 -104 -104 c-103 -102 -104 -104 -99 -143 5 -34 2 -43 -16 -54
-14 -9 -21 -23 -21 -45 0 -18 -5 -33 -10 -33 -6 0 -20 -11 -32 -25 -20 -23
-28 -25 -109 -25 -78 0 -88 2 -103 23 l-16 22 -16 -22 c-13 -18 -26 -23 -63
-23 -39 0 -51 5 -78 34 -39 39 -43 78 -12 100 33 22 31 80 -3 118 l-27 31 -20
-24 -19 -24 -36 35 -36 35 0 104 0 105 40 37 c30 28 40 45 40 68 0 17 4 31 9
31 6 0 34 23 63 51 l53 51 -22 15 c-20 13 -23 24 -23 81 0 60 3 68 33 98 38
39 43 41 59 14z m923 -50 c0 -18 -6 -26 -23 -28 -13 -2 -25 3 -28 12 -10 26 4
48 28 44 17 -2 23 -10 23 -28z m-1240 -200 c0 -18 -6 -26 -23 -28 -13 -2 -25
3 -28 12 -10 26 4 48 28 44 17 -2 23 -10 23 -28z m-369 -385 l94 -94 0 -81 0
-82 -54 -54 c-32 -32 -62 -54 -75 -54 -12 0 -37 -17 -58 -40 -55 -60 -69 -55
-179 55 l-94 94 0 61 0 61 94 94 c66 66 101 95 118 95 13 0 29 9 36 20 7 11
15 20 18 20 3 0 48 -43 100 -95z m209 -895 l0 -185 -75 -3 c-65 -3 -77 0 -91
17 -13 16 -31 21 -90 23 l-74 3 0 105 0 105 33 3 c41 4 82 44 82 81 0 15 3 31
7 35 4 4 52 5 107 4 l101 -3 0 -185z m963 -49 c3 -27 22 -51 103 -131 94 -93
99 -100 99 -140 0 -39 -5 -47 -80 -121 -65 -64 -80 -84 -80 -109 0 -16 -5 -30
-10 -30 -6 0 -20 -11 -32 -25 -28 -33 -109 -36 -130 -6 -8 11 -28 21 -48 23
-32 3 -35 6 -38 41 -3 33 -6 37 -32 37 -17 0 -34 8 -42 19 -8 11 -28 21 -48
23 l-35 3 -3 74 -3 74 41 38 c30 28 40 45 40 68 0 17 4 31 10 31 23 0 70 60
70 90 0 16 5 30 10 30 6 0 20 11 32 25 21 24 28 26 98 23 l75 -3 3 -34z"/>
</g>
</svg>
